<?xml version='1.0' encoding='UTF-8'?>
<svg xmlns="http://www.w3.org/2000/svg" xmlns:inkscape="http://www.inkscape.org/namespaces/inkscape" xmlns:sodipodi="http://sodipodi.sourceforge.net/DTD/sodipodi-0.dtd" width="738.69781pt" height="571.45654pt" viewBox="0 0 738.69782 571.45653" version="1.1" id="svg54" sodipodi:docname="icon.svg" inkscape:version="1.4.4 (dcaf3e7, 2026-05-05)">
  <style>
    @media (prefers-color-scheme: dark) {
    [fill='#026678'], [style*='fill:#026678'] { fill: #61b7c6 !important; }
    [fill='#58c245'], [style*='fill:#58c245'] { fill: #aaeb85 !important; }
    [stroke='#026678'], [style*='stroke:#026678'] { stroke: #61b7c6 !important; }
    [stroke='#58c245'], [style*='stroke:#58c245'] { stroke: #aaeb85 !important; }
  }
  </style><sodipodi:namedview id="namedview1" pagecolor="#ffffff" bordercolor="#000000" borderopacity="0.25" inkscape:showpageshadow="2" inkscape:pageopacity="0.0" inkscape:pagecheckerboard="0" inkscape:deskcolor="#d1d1d1" inkscape:document-units="pt" inkscape:zoom="1.267528" inkscape:cx="495.45257" inkscape:cy="355.41621" inkscape:window-width="2560" inkscape:window-height="1382" inkscape:window-x="0" inkscape:window-y="30" inkscape:window-maximized="1" inkscape:current-layer="svg54" />
  <defs id="defs18">
    <mask maskUnits="userSpaceOnUse" id="mask-powermask-path-effect55">
      <path id="mask-powermask-path-effect55_box" style="fill:#ffffff;fill-opacity:1" d="M 66.073942,9.9612183 H 772.67683 V 372.91124 H 66.073942 Z" />
      <path fill-rule="nonzero" fill="rgb(100%, 100%, 100%)" fill-opacity="1" d="M 268.92188,375.77344 605.66015,204.19532 c 0.92188,-0.46875 1.88282,-0.84375 2.87892,-1.125 0.99609,-0.28125 2.00781,-0.46095 3.03906,-0.54297 1.03125,-0.082 2.0625,-0.0586 3.08984,0.0625 1.02734,0.1211 2.03125,0.33985 3.01563,0.66016 0.98437,0.32031 1.92577,0.73438 2.82812,1.23828 0.90234,0.50391 1.75,1.09375 2.53516,1.76563 0.78515,0.67187 1.5,1.41406 2.14062,2.22656 0.64063,0.8125 1.19531,1.67968 1.66406,2.60156 0.47266,0.92187 0.84766,1.88282 1.12891,2.875 0.28125,0.9961 0.46093,2.01172 0.54297,3.04297 0.0781,1.03125 0.0586,2.0586 -0.0625,3.08594 -0.12109,1.02734 -0.34375,2.03515 -0.66015,3.01953 -0.32031,0.98437 -0.73438,1.92578 -1.23828,2.82812 -0.50782,0.90235 -1.09376,1.75001 -1.76563,2.53516 -0.67187,0.78515 -1.41407,1.5 -2.22656,2.14063 -0.8125,0.64062 -1.67969,1.19531 -2.60157,1.66406 l -336.7383,171.57814 c -0.92187,0.46875 -1.88281,0.84375 -2.87891,1.125 -0.99218,0.28125 -2.00781,0.46094 -3.03906,0.54297 -1.03125,0.082 -2.05859,0.0625 -3.08984,-0.0586 -1.02734,-0.125 -2.03126,-0.34375 -3.01563,-0.66406 -0.98438,-0.32032 -1.92578,-0.73047 -2.82812,-1.23828 -0.90234,-0.50391 -1.75,-1.09375 -2.53516,-1.76563 -0.78515,-0.67187 -1.5,-1.41406 -2.14062,-2.22656 -0.64063,-0.8125 -1.19531,-1.67968 -1.66406,-2.60156 -0.47266,-0.92188 -0.84766,-1.87891 -1.12891,-2.875 -0.27734,-0.9961 -0.46094,-2.01172 -0.54297,-3.04297 -0.0781,-1.03125 -0.0586,-2.0586 0.0625,-3.08594 0.1211,-1.02734 0.34376,-2.03515 0.66016,-3.01953 0.32031,-0.98047 0.73438,-1.92578 1.23828,-2.82813 0.50782,-0.90234 1.09376,-1.74609 1.76563,-2.53515 0.67187,-0.78516 1.41406,-1.5 2.22656,-2.14063 0.8125,-0.64062 1.67969,-1.19531 2.60156,-1.66406 z m 0,0" id="path55" style="fill:#000000;fill-opacity:1;stroke-width:0.999998" />
    </mask>
    <filter id="mask-powermask-path-effect55_inverse" style="color-interpolation-filters:sRGB" height="100" width="100" x="-50" y="-50">
      <feColorMatrix id="mask-powermask-path-effect55_primitive1" values="1" type="saturate" result="fbSourceGraphic" />
      <feColorMatrix id="mask-powermask-path-effect55_primitive2" values="-1 0 0 0 1 0 -1 0 0 1 0 0 -1 0 1 0 0 0 1 0 " in="fbSourceGraphic" />
    </filter>
  </defs>
  <text xml:space="preserve" style="font-style:normal;font-variant:normal;font-weight:normal;font-stretch:normal;font-size:91.8279px;font-family:'Helvetica Neue';-inkscape-font-specification:'Helvetica Neue, Normal';font-variant-ligatures:normal;font-variant-caps:normal;font-variant-numeric:normal;font-variant-east-asian:normal;writing-mode:lr-tb;direction:ltr;display:inline;opacity:1;fill:#58c245;stroke:#58c245;stroke-width:0.918049" x="139.60135" y="560.20892" id="text1" transform="scale(1.0134585,0.98672023)" inkscape:label="label"><tspan sodipodi:role="line" id="tspan1" style="font-style:normal;font-variant:normal;font-weight:normal;font-stretch:normal;font-size:91.8279px;font-family:'Helvetica Neue';-inkscape-font-specification:'Helvetica Neue, Normal';font-variant-ligatures:normal;font-variant-caps:normal;font-variant-numeric:normal;font-variant-east-asian:normal;stroke-width:0.918049" x="139.60135" y="560.20892"><tspan style="font-style:normal;font-variant:normal;font-weight:normal;font-stretch:normal;font-size:91.8279px;font-family:'Helvetica Neue';-inkscape-font-specification:'Helvetica Neue, Normal';font-variant-ligatures:normal;font-variant-caps:normal;font-variant-numeric:normal;font-variant-east-asian:normal;fill:#026678;fill-opacity:1;stroke:#026678;stroke-width:0.918049;stroke-opacity:1" id="tspan2">Experi</tspan><tspan style="font-style:normal;font-variant:normal;font-weight:normal;font-stretch:normal;font-size:91.8279px;font-family:'Helvetica Neue';-inkscape-font-specification:'Helvetica Neue, Normal';font-variant-ligatures:normal;font-variant-caps:normal;font-variant-numeric:normal;font-variant-east-asian:normal;fill:#58c245;fill-opacity:1;stroke:#58c245;stroke-width:0.918049;stroke-opacity:1" id="tspan3">maestro</tspan></tspan></text>
  <path fill-rule="nonzero" fill="#026678" fill-opacity="1" d="M 20.00319,475.19685 C 16.221944,470.5406 13.917254,464.56404 11.534444,459.0992 7.4953738,449.84529 0.16334376,429.57967 0.03834376,419.82185 c -0.0156,-1.90625 -0.25,-6.03515 0.66016,-7.59375 0.95312004,-1.63671 4.08594004,-3.26953 5.78125004,-4.12109 l 12.8789052,-6.61328 c 13.710937,-8.30078 19.417968,-15.16797 30.910156,-25.56641 l 24.472657,-22.60937 c 8.28906,-7.3086 11.957027,-12.1875 23.828117,-12.05469 6.265631,0.0703 12.625001,2.01563 18.671881,3.44531 l 19.96484,4.25782 c 9.36328,2.23828 25.77734,4.6875 34.12891,8.67187 8.12109,3.875 15.79296,9.82031 23.18359,14.99609 2.16016,1.51563 7.90234,6.16797 10.30469,6.125 1.45703,-0.0273 5.02343,-1.86328 6.4414,-2.57031 27.8125,-13.54297 269.55078,-135.98437 362.37891,-181.22265 0,0 4.95703,-2.22657 9.97656,-4.04297 4.25,-0.88672 4.2461,-0.11328 2.17188,2.52343 -4.69922,4.26954 -6.05469,4.71094 -8.98828,6.28907 -88.00391,46.94531 -331.58204,172.78125 -358.62891,188.29297 5.12109,4.6914 18.3125,12.21093 7.25391,18.76562 -1.32422,0.78516 -2.38282,1.07422 -3.86329,1.37109 -1.67968,0.33985 -3.4375,0.63672 -5.15234,0.50391 -1.54297,-0.125 -6.26953,-0.98828 -7.72656,-1.46875 -2.11719,-0.69141 -12.51172,-5.76953 -13.99219,-7.10156 -1.80469,-1.63281 -5.19531,-5.06641 -8.29297,-8.375 -5.55078,-5.92969 -11.52734,-4.66797 -19.10547,-4.58594 -15.30078,0.18359 -38.28125,9.74219 -51.5,9.76172 -4.30468,0.008 -8.6289,0.22656 -12.8789,-0.48438 -3.464851,-0.71093 -7.250001,-1.4375 -10.949221,-2.41406 -2.46485,-0.17969 -4.65235,-0.63281 -3.78125,2.11328 2.23047,1.81641 4.90625,2.30078 7.16015,2.9336 7.214851,2.02734 13.105471,2.82812 20.609381,2.74218 9.34375,-0.10937 24.50781,-4.89843 34.12891,-7.24218 l 7.72656,-1.21094 c 7.38281,-1.11328 7.76953,-1.30078 15.45703,-1.20313 7.05859,0.0937 12.53906,3.26954 12.22266,10.94532 -0.2461,6.03125 -6.11329,8.60937 -10.9336,10.74609 -9.57812,4.25 -26.6289,7.78516 -37.35156,10.77344 -21.57422,6.01172 -32.32813,24.32031 -54.093748,33.63672 -8.37109,3.58593 -20.492185,4.39062 -29.621091,5.25781 -3.769531,0.36328 -4.574218,-0.0937 -9.015625,0.83203 -8.308593,1.73438 -16.957031,6.90234 -24.472656,10.87109 z m 101.28515,-134.09765 23,-3.97656 c 6.37109,-1.06641 12.82422,-2.55469 19.32031,-2.26954 l 17.38672,2.36719 10.30469,1.01172 15.45703,2.5625 11.58984,1.64844 7.08204,0.71484 c 2.30078,0.44531 4.85546,1.10156 4.9414,3.92578 0.1211,4.01172 -3.80469,7.90235 -6.92969,9.89063 -7.8164,4.98437 -19.19531,3.65234 -28.27734,3.60547 -2.07812,-0.0117 -9.10547,0.0195 -11.09375,-0.73047 -2.94531,-1.11719 -13.27344,-6.9375 -24.14062,-11.10938 z m 66.79297,74.21484 c -1.51953,5.32422 -6.70313,14.82813 -9.46094,19.96094 -1.78515,3.31641 -3.36719,7.43359 -6.20312,10.05078 -1.46875,1.34375 -2.98047,1.94531 -4.94532,2.10938 -6.83203,0.58593 -11.2539,-6.71485 -11.5664,-12.80469 -0.10938,-2.21485 -0.0117,-4.98438 1.68359,-6.63281 1.96485,-1.90625 9.61328,-3.72657 12.46094,-4.64844 l 10.94531,-4.41016 c 2.86719,-1.4375 3.8125,-2.42187 7.08594,-3.625 z m 0,0" id="path54" style="display:inline;fill:#026678;fill-opacity:1" inkscape:label="Hand" />
  <g id="g54" mask="url(#mask-powermask-path-effect55)" style="display:inline;opacity:1" transform="translate(-41.699936,-17.100013)">
    <g id="g5" style="fill:none;stroke:#026678;stroke-width:13.701;stroke-linecap:butt;stroke-linejoin:miter;stroke-miterlimit:10;stroke-opacity:1" inkscape:label="blue Edges">
      <path fill="none" stroke-width="20" stroke-linecap="butt" stroke-linejoin="miter" stroke="#026678" stroke-opacity="1" stroke-miterlimit="10" d="M 147.16894,550.10186 C 287.05903,472.03415 405.33238,488.99796 502.0004,600.99898 598.66843,713 679.66703,659.9988 745.00191,442.00109 810.33109,223.99768 920.81534,132.95765 1076.449,168.86959" transform="matrix(0.685052,0,0,0.685052,-3.791087,-85.633733)" id="path52" style="fill:none;stroke:#026678;stroke-width:20;stroke-linecap:butt;stroke-linejoin:miter;stroke-miterlimit:10;stroke-opacity:1" />
      <path fill="none" stroke-width="10" stroke-linecap="butt" stroke-linejoin="miter" stroke="#026678" stroke-opacity="1" stroke-miterlimit="10" d="m 311.48109,379.2755 c 0,0 34.937,54.72552 77.69719,125.1923" transform="matrix(0.685052,0,0,0.685052,-3.791087,-85.633733)" id="path49" style="fill:none;stroke:#026678;stroke-width:10.9481;stroke-linecap:butt;stroke-linejoin:miter;stroke-miterlimit:10;stroke-dasharray:none;stroke-opacity:1" />
      <path fill="none" stroke-width="10" stroke-linecap="butt" stroke-linejoin="miter" stroke="#026678" stroke-opacity="1" stroke-miterlimit="10" d="m 685.7911,597.49788 c 0,0 69.30777,-76.51492 181.64521,-197.44546" transform="matrix(0.685052,0,0,0.685052,-3.791087,-85.633733)" id="path46" style="fill:none;stroke:#026678;stroke-width:10.9481;stroke-linecap:butt;stroke-linejoin:miter;stroke-miterlimit:10;stroke-dasharray:none;stroke-opacity:1" />
      <path fill="none" stroke-width="10" stroke-linecap="butt" stroke-linejoin="miter" stroke="#026678" stroke-opacity="1" stroke-miterlimit="10" d="m 788.52532,327.71555 c 0,0 47.89131,44.35864 78.88802,72.16217" id="path47" style="fill:none;stroke:#026678;stroke-width:10.9481;stroke-linecap:butt;stroke-linejoin:miter;stroke-miterlimit:10;stroke-dasharray:none;stroke-opacity:1" transform="matrix(0.685052,0,0,0.685052,-3.791087,-85.633733)" />
      <path fill="none" stroke-width="10" stroke-linecap="butt" stroke-linejoin="miter" stroke="#026678" stroke-opacity="1" stroke-miterlimit="10" d="m 512.09316,406.45978 c 0,0 97.35649,-28.15657 265.80278,-75.70654" transform="matrix(0.685052,0,0,0.685052,-3.791087,-85.633733)" id="path43" style="display:none;fill:none;stroke:#026678;stroke-width:20;stroke-linecap:butt;stroke-linejoin:miter;stroke-miterlimit:10;stroke-opacity:1" sodipodi:nodetypes="cc" />
      <path fill="none" stroke-width="10" stroke-linecap="butt" stroke-linejoin="miter" stroke="#026678" stroke-opacity="1" stroke-miterlimit="10" d="m 648.23125,607.07744 c 0,0 -75.10261,-25.16916 -225.31353,-75.50746" transform="matrix(0.685052,0,0,0.685052,-3.791087,-85.633733)" id="path42" style="fill:none;stroke:#026678;stroke-width:10.9481;stroke-linecap:butt;stroke-linejoin:miter;stroke-miterlimit:10;stroke-dasharray:none;stroke-opacity:1" />
      <path fill="none" stroke-width="20" stroke-linecap="butt" stroke-linejoin="miter" stroke="#026678" stroke-opacity="1" stroke-miterlimit="10" d="M 141.50104,543.35055 C 244.87475,415.54896 326.19267,354.47927 385.44909,360.13007 c 59.26212,5.6508 109.07013,40.51925 149.41833,104.58826 40.34819,64.08042 79.16822,109.5092 116.46008,136.28065" transform="matrix(0.685052,0,0,0.685052,-3.791087,-85.633733)" id="path36" style="fill:none;stroke:#026678;stroke-width:20;stroke-linecap:butt;stroke-linejoin:miter;stroke-miterlimit:10;stroke-opacity:1" />
      <path fill="none" stroke-width="10" stroke-linecap="butt" stroke-linejoin="miter" stroke="#026678" stroke-opacity="1" stroke-miterlimit="10" d="m 489.34608,415.3965 c 0,0 -32.42093,39.03521 -73.90384,90.83326" transform="matrix(0.685052,0,0,0.685052,-3.791087,-85.633733)" id="path31" style="fill:none;stroke:#026678;stroke-width:10.9481;stroke-linecap:butt;stroke-linejoin:miter;stroke-miterlimit:10;stroke-dasharray:none;stroke-opacity:1" />
    </g>
    <g id="g3" style="display:inline;fill:none;stroke:#58c245;stroke-opacity:1" inkscape:label="green Edges">
      <path fill="none" stroke-width="20" stroke-linecap="butt" stroke-linejoin="miter" stroke="#58c245" stroke-opacity="1" stroke-miterlimit="10" d="m 689.95935,626.13962 c 64.3028,38.13577 122.11088,22.97954 173.42995,-45.4687 51.31907,-68.44823 124.63122,-101.66878 219.9307,-99.67304" transform="matrix(0.685052,0,0,0.685052,-3.791087,-85.633733)" id="path30" style="display:inline;fill:none;stroke:#58c245;stroke-opacity:1" />
      <path fill="none" stroke-width="10" stroke-linecap="butt" stroke-linejoin="miter" stroke="#58c245" stroke-opacity="1" stroke-miterlimit="10" d="m 811.7281,321.97719 c 0,0 77.52031,-16.3993 232.5495,-49.19788" transform="matrix(0.685052,0,0,0.685052,-3.791087,-85.633733)" id="path39" style="display:inline;fill:none;stroke:#58c245;stroke-width:10.9481;stroke-dasharray:none;stroke-opacity:1" />
      <path fill="none" stroke-width="10" stroke-linecap="butt" stroke-linejoin="miter" stroke="#58c245" stroke-opacity="1" stroke-miterlimit="10" d="m 891.78015,406.80191 c 0,0 64.42824,22.47775 193.27905,67.43896" transform="matrix(0.685052,0,0,0.685052,-3.791087,-85.633733)" id="path48" style="display:inline;fill:none;stroke:#58c245;stroke-width:10.9481;stroke-dasharray:none;stroke-opacity:1" />
      <path fill="none" stroke-width="10" stroke-linecap="butt" stroke-linejoin="miter" stroke="#58c245" stroke-opacity="1" stroke-miterlimit="10" d="m 889.2085,386.43964 c 0,0 52.81302,-35.21628 158.4334,-105.64886" transform="matrix(0.685052,0,0,0.685052,-3.791087,-85.633733)" id="path44" style="display:inline;fill:none;stroke:#58c245;stroke-width:10.9481;stroke-dasharray:none;stroke-opacity:1" />
    </g>
    <g id="g2" style="display:inline;opacity:1;fill:#58c245;fill-opacity:1;stroke:#58c245;stroke-opacity:1" inkscape:label="Green Nodes">
      <path fill-rule="nonzero" fill="#aaeb85" fill-opacity="1" stroke-width="0.685052" stroke-linecap="butt" stroke-linejoin="miter" stroke="#aaeb85" stroke-opacity="1" stroke-miterlimit="4" d="m 766.04237,241.88263 c 0.0899,1.03515 0.0781,2.0664 -0.0351,3.09765 -0.11326,1.03125 -0.32423,2.04296 -0.63668,3.03124 -0.31252,0.98829 -0.71875,1.9375 -1.21491,2.84766 -0.49994,0.91016 -1.08202,1.76172 -1.74996,2.55859 -0.66795,0.79297 -1.40627,1.51563 -2.21483,2.16406 -0.80863,0.64844 -1.67189,1.21485 -2.59376,1.69532 -0.92187,0.47655 -1.8789,0.86328 -2.875,1.15234 -0.99611,0.28906 -2.01169,0.48046 -3.04296,0.57031 -1.0352,0.0899 -2.06642,0.082 -3.09766,-0.0312 -1.03123,-0.11328 -2.04296,-0.32812 -3.03124,-0.64062 -0.98829,-0.3086 -1.94139,-0.71485 -2.84768,-1.21485 -0.91014,-0.49999 -1.76171,-1.08203 -2.55857,-1.74999 -0.79301,-0.66407 -1.51563,-1.40235 -2.16408,-2.21484 -0.65231,-0.80861 -1.21484,-1.67188 -1.6953,-2.59376 -0.47655,-0.91797 -0.86327,-1.87499 -1.15231,-2.87109 -0.29297,-0.99609 -0.4805,-2.01171 -0.57031,-3.04687 -0.0971,-1.03096 -0.082,-2.06641 0.0312,-3.09765 0.11326,-1.03125 0.32814,-2.03906 0.63674,-3.03125 0.31246,-0.98828 0.71876,-1.93751 1.2187,-2.84765 0.5,-0.91016 1.08209,-1.76173 1.75003,-2.5586 0.66402,-0.79296 1.40235,-1.51562 2.21091,-2.16406 0.80863,-0.64844 1.67581,-1.21484 2.59376,-1.6914 0.92187,-0.48047 1.87889,-0.86719 2.875,-1.15625 0.9961,-0.28907 2.01175,-0.48048 3.04688,-0.57032 1.03128,-0.0898 2.06642,-0.0781 3.09765,0.0352 1.03124,0.11328 2.03904,0.32422 3.03125,0.63672 0.98829,0.3125 1.93747,0.71485 2.84768,1.21484 0.91014,0.5 1.76171,1.08203 2.55465,1.75 0.79686,0.66797 1.51955,1.40625 2.168,2.21484 0.64838,0.8086 1.21484,1.67187 1.69138,2.59375 0.48047,0.91797 0.86326,1.87891 1.15623,2.875 0.28911,0.99609 0.4805,2.00781 0.57031,3.04297 z m 0,0" id="path33" style="fill:#58c245;fill-opacity:1;stroke:#58c245;stroke-opacity:1" />
      <path fill-rule="nonzero" fill="#aaeb85" fill-opacity="1" stroke-width="0.685052" stroke-linecap="butt" stroke-linejoin="miter" stroke="#aaeb85" stroke-opacity="1" stroke-miterlimit="4" d="m 740.14009,98.437415 c 0.0906,1.035095 0.0781,2.066405 -0.0351,3.097655 -0.11333,1.03125 -0.32422,2.04296 -0.63675,3.03125 -0.31252,0.99219 -0.71875,1.94141 -1.21484,2.85156 -0.5,0.90625 -1.08202,1.76172 -1.75003,2.55469 -0.66795,0.79687 -1.4062,1.51561 -2.21483,2.16796 -0.80856,0.64844 -1.67189,1.21094 -2.59376,1.69141 -0.92187,0.48047 -1.87889,0.86328 -2.875,1.15234 -0.99604,0.29297 -2.01169,0.48438 -3.04296,0.57422 -1.03513,0.0899 -2.06635,0.0781 -3.09766,-0.0352 -1.03123,-0.11328 -2.04295,-0.32422 -3.03124,-0.63672 -0.98822,-0.3125 -1.93747,-0.71875 -2.84761,-1.21875 -0.91021,-0.49609 -1.76171,-1.08203 -2.55864,-1.74608 -0.79294,-0.66798 -1.51563,-1.40625 -2.16401,-2.21485 -0.65237,-0.80859 -1.21484,-1.67578 -1.6953,-2.59375 -0.47662,-0.92187 -0.86333,-1.8789 -1.15238,-2.875 -0.29297,-0.99609 -0.48043,-2.01171 -0.57031,-3.04296 -0.0906,-1.03543 -0.082,-2.06641 0.0312,-3.097653 0.11333,-1.031254 0.32814,-2.042973 0.63675,-3.03125 0.31252,-0.99219 0.71875,-1.941408 1.21876,-2.85156 0.5,-0.906254 1.08202,-1.761718 1.74996,-2.554689 0.6641,-0.796877 1.40235,-1.515624 2.21098,-2.167966 0.81248,-0.648436 1.67574,-1.210933 2.59376,-1.691411 0.92187,-0.480463 1.87889,-0.863273 2.875,-1.152341 0.99604,-0.292961 2.01168,-0.480465 3.04681,-0.574211 1.03128,-0.08985 2.06642,-0.07813 3.09766,0.03515 1.0313,0.113275 2.03911,0.324218 3.03124,0.636719 0.98829,0.312501 1.93754,0.718749 2.84768,1.218751 0.91014,0.49609 1.76171,1.082031 2.55472,1.746084 0.79686,0.667974 1.51948,1.406258 2.16793,2.214847 0.64846,0.808595 1.21484,1.675781 1.69138,2.593751 0.48054,0.92187 0.86333,1.878898 1.1563,2.874991 0.28905,0.996099 0.48043,2.011724 0.57031,3.042969 z m 0,0" id="path40" style="fill:#58c245;fill-opacity:1;stroke:#58c245;stroke-opacity:1" />
    </g>
    <g id="g4" style="display:inline;opacity:1;fill:#026678;fill-opacity:1;stroke:#026678;stroke-opacity:1" inkscape:label="blue nodes">
      <path fill-rule="nonzero" fill="#61b7c6" fill-opacity="1" stroke-width="2" stroke-linecap="butt" stroke-linejoin="miter" stroke="#61b7c6" stroke-opacity="1" stroke-miterlimit="4" d="m 812.22668,326.7075 c -10e-4,1.51674 -0.14929,3.01488 -0.44523,4.5001 -0.29593,1.48522 -0.73139,2.92961 -1.31156,4.327 -0.58066,1.40307 -1.29219,2.73173 -2.1294,3.99215 -0.84239,1.25424 -1.79761,2.42421 -2.86985,3.49235 -1.07273,1.07382 -2.23777,2.02509 -3.49661,2.87085 -1.25835,0.84008 -2.58529,1.54823 -3.98699,2.12963 -1.40171,0.58141 -2.84212,1.01633 -4.3274,1.30996 -1.48578,0.2993 -2.98704,0.44843 -4.4981,0.44788 -1.51674,-0.001 -3.01488,-0.14929 -4.5001,-0.44523 -1.48522,-0.29593 -2.92962,-0.73139 -4.327,-1.31156 -1.40307,-0.58066 -2.73173,-1.29219 -3.98597,-2.13458 -1.26043,-0.83721 -2.42989,-1.79811 -3.49853,-2.86467 -1.06815,-1.07223 -2.0251,-2.23777 -2.87085,-3.49661 -0.84008,-1.25835 -1.54773,-2.59097 -2.12964,-3.98699 -0.5814,-1.40171 -1.01633,-2.84212 -1.30995,-4.3274 -0.2993,-1.48578 -0.44275,-2.98654 -0.44788,-4.4981 10e-4,-1.51674 0.14929,-3.01488 0.44522,-4.5001 0.29594,-1.48522 0.73139,-2.92962 1.31156,-4.327 0.58067,-1.40307 1.2922,-2.73173 2.13508,-3.99166 0.83671,-1.25474 1.79762,-2.4242 2.86417,-3.49284 1.07274,-1.07383 2.23778,-2.0251 3.49662,-2.87085 1.25835,-0.84008 2.59096,-1.54773 3.98699,-2.12964 1.40171,-0.5814 2.84211,-1.01633 4.3274,-1.30995 1.48578,-0.2993 2.98654,-0.44275 4.50378,-0.44738 1.51106,5.5e-4 3.0092,0.14879 4.49442,0.44472 1.4909,0.29643 2.92961,0.7314 4.327,1.31156 1.40307,0.58067 2.73173,1.29219 3.99165,2.13508 1.26042,0.83721 2.42421,1.79761 3.49285,2.86417 1.07382,1.07274 2.03077,2.23828 2.87085,3.49662 0.84008,1.25834 1.54773,2.59096 2.12963,3.98699 0.58141,1.40171 1.01633,2.84211 1.31564,4.32789 0.29362,1.48529 0.44275,2.98655 0.4422,4.49761 z m 0,0" transform="matrix(0.682445,-0.0597062,0.0597062,0.682445,-21.240505,-37.664273)" id="path41" style="fill:#026678;fill-opacity:1;stroke:#026678;stroke-opacity:1" />
      <path fill-rule="nonzero" fill="#61b7c6" fill-opacity="1" stroke-width="2" stroke-linecap="butt" stroke-linejoin="miter" stroke="#61b7c6" stroke-opacity="1" stroke-miterlimit="4" d="m 335.76695,379.08924 c -0.001,1.51674 -0.14361,3.01538 -0.43387,4.50109 -0.29025,1.48572 -0.71953,2.92493 -1.28266,4.3238 -0.5693,1.40407 -1.26329,2.72854 -2.08914,3.98995 -0.82016,1.26192 -1.75735,2.42201 -2.80736,3.49782 -1.04384,1.07063 -2.18616,2.02389 -3.4161,2.86645 -1.23562,0.84206 -2.53416,1.5527 -3.90128,2.1314 -1.37281,0.57821 -2.77914,1.01612 -4.23602,1.31223 -1.4512,0.2966 -2.91788,0.44303 -4.40054,0.44497 -1.48216,-0.004 -2.94622,-0.14901 -4.40304,-0.44246 -1.45064,-0.29863 -2.86613,-0.73728 -4.23512,-1.31497 -1.36898,-0.57768 -2.66874,-1.2924 -3.90026,-2.13281 -1.23153,-0.8404 -2.36691,-1.79832 -3.41801,-2.86907 -1.04542,-1.07024 -1.98533,-2.23429 -2.80837,-3.49115 -0.82254,-1.26253 -1.51365,-2.58798 -2.08369,-3.98869 -0.56437,-1.40022 -0.99361,-2.84013 -1.28105,-4.33059 -0.29363,-1.48529 -0.43757,-2.98037 -0.43652,-4.49711 0.001,-1.51674 0.14361,-3.01538 0.43386,-4.5011 0.29025,-1.48571 0.71953,-2.92492 1.28266,-4.3238 0.56881,-1.39838 1.26329,-2.72853 2.08914,-3.98995 0.81967,-1.25623 1.75735,-2.422 2.80687,-3.49214 1.04433,-1.07631 2.18665,-2.02956 3.41659,-2.87212 1.22994,-0.84257 2.53416,-1.5527 3.90129,-2.13141 1.36713,-0.57871 2.77913,-1.01612 4.23601,-1.31222 1.4512,-0.29661 2.91788,-0.44304 4.40054,-0.44497 1.48216,0.004 2.94622,0.14901 4.40254,0.44813 1.45114,0.29295 2.86095,0.73111 4.22994,1.30879 1.36898,0.57769 2.66874,1.29241 3.90595,2.13331 1.23152,0.8404 2.3669,1.79832 3.41801,2.86907 1.04542,1.07025 1.97965,2.2338 2.80218,3.49634 0.82872,1.25734 1.51933,2.58847 2.08987,3.9835 0.56437,1.40022 0.99311,2.84581 1.28106,4.3306 0.28794,1.48478 0.43707,2.98604 0.43652,4.49711 z m 0,0" transform="matrix(0.682445,-0.0597062,0.0597062,0.682445,-25.608665,-65.945512)" id="path32" style="fill:#026678;fill-opacity:1;stroke:#026678;stroke-opacity:1" />
      <path fill-rule="nonzero" fill="#61b7c6" fill-opacity="1" stroke-width="2" stroke-linecap="butt" stroke-linejoin="miter" stroke="#61b7c6" stroke-opacity="1" stroke-miterlimit="4" d="m 893.06541,399.20984 c -0.001,1.51675 -0.14929,3.01489 -0.44522,4.50011 -0.29593,1.48521 -0.73139,2.92961 -1.31156,4.327 -0.58017,1.39738 -1.2917,2.72604 -2.1289,3.98646 -0.84289,1.25993 -1.79761,2.42421 -2.87035,3.49804 -1.07224,1.06814 -2.23778,2.02509 -3.49612,2.86517 -1.25834,0.84007 -2.58578,1.5539 -3.98748,2.13531 -1.39553,0.57622 -2.84212,1.01633 -4.3274,1.30995 -1.48528,0.29362 -2.98655,0.44275 -4.49761,0.4422 -1.51674,-0.001 -3.01488,-0.14929 -4.5006,-0.43954 -1.48522,-0.29593 -2.92911,-0.73707 -4.3265,-1.31724 -1.39788,-0.57449 -2.72654,-1.28602 -3.98647,-2.1289 -1.25992,-0.84289 -2.42421,-1.79762 -3.49803,-2.87035 -1.06864,-1.06656 -2.02559,-2.2321 -2.86517,-3.49612 -0.84576,-1.25884 -1.55391,-2.58578 -2.13531,-3.98749 -0.57622,-1.39553 -1.01633,-2.84211 -1.30996,-4.32739 -0.29412,-1.47961 -0.44324,-2.98087 -0.44219,-4.49761 5.5e-4,-1.51106 0.14361,-3.01538 0.43954,-4.5006 0.29593,-1.48522 0.73657,-2.92343 1.31156,-4.327 0.58016,-1.39739 1.29169,-2.72604 2.13458,-3.98597 0.84289,-1.25993 1.79761,-2.42421 2.87035,-3.49803 1.06655,-1.06864 2.23209,-2.02559 3.49044,-2.86567 1.26402,-0.83958 2.59146,-1.55341 3.99267,-2.12913 1.39602,-0.58191 2.83693,-1.02251 4.32221,-1.31613 1.48528,-0.29363 2.98654,-0.44275 4.50329,-0.44171 1.51106,5.5e-4 3.01488,0.14929 4.5001,0.44523 1.48571,0.29025 2.92393,0.73089 4.327,1.31156 1.39739,0.58016 2.72654,1.28601 3.98647,2.1289 1.25992,0.84289 2.4242,1.79761 3.49235,2.86985 1.07382,1.07273 2.03077,2.23827 2.87085,3.49662 0.84007,1.25834 1.5539,2.58577 2.12963,3.98698 0.5819,1.39603 1.01633,2.84212 1.31563,4.3279 0.29363,1.48528 0.44325,2.98086 0.4422,4.4976 z m 0,0" transform="matrix(0.682445,-0.0597062,0.0597062,0.682445,-25.358473,-32.648627)" id="path45" style="fill:#026678;fill-opacity:1;stroke:#026678;stroke-opacity:1" />
      <path fill-rule="nonzero" fill="#61b7c6" fill-opacity="1" stroke-width="1.3701" stroke-linecap="butt" stroke-linejoin="miter" stroke="#61b7c6" stroke-opacity="1" stroke-miterlimit="4" d="m 288.19117,270.62867 c 0.0899,1.03125 0.0781,2.0664 -0.0351,3.09765 -0.11328,1.03125 -0.32422,2.03906 -0.63672,3.03125 -0.3125,0.98828 -0.71875,1.9375 -1.21875,2.84765 -0.49609,0.91016 -1.08203,1.76172 -1.74609,2.55469 -0.66797,0.79687 -1.40625,1.51953 -2.21484,2.16797 -0.8086,0.64843 -1.67578,1.21484 -2.59375,1.6914 -0.92188,0.48047 -1.8789,0.86328 -2.875,1.15625 -0.99609,0.28907 -2.01172,0.48047 -3.04297,0.57031 -1.03515,0.0899 -2.0664,0.0781 -3.09765,-0.0351 -1.03125,-0.11328 -2.04297,-0.32422 -3.03125,-0.63672 -0.99218,-0.3125 -1.9414,-0.71875 -2.85156,-1.21484 -0.91016,-0.50001 -1.76172,-1.08203 -2.55468,-1.75 -0.79687,-0.66797 -1.51563,-1.40626 -2.16797,-2.21485 -0.64844,-0.80859 -1.21094,-1.67187 -1.69141,-2.59375 -0.48046,-0.92187 -0.86327,-1.8789 -1.15234,-2.87499 -0.29297,-0.99609 -0.48437,-2.01172 -0.57422,-3.04296 -0.0899,-1.03516 -0.0781,-2.06641 0.0352,-3.09766 0.11329,-1.03125 0.32423,-2.04297 0.63672,-3.03125 0.3125,-0.98828 0.71876,-1.9414 1.21876,-2.84766 0.49609,-0.91015 1.08203,-1.76171 1.74609,-2.55859 0.66797,-0.79296 1.40625,-1.51562 2.21484,-2.16406 0.8086,-0.65234 1.67578,-1.21484 2.59375,-1.69531 0.92187,-0.47656 1.8789,-0.86328 2.875,-1.15234 0.99609,-0.28907 2.01171,-0.48047 3.04296,-0.57031 1.03514,-0.094 2.06641,-0.082 3.09766,0.0312 1.03125,0.11328 2.04297,0.32812 3.03124,0.63672 0.99219,0.31249 1.94141,0.71874 2.85156,1.21874 0.90626,0.5 1.76172,1.08203 2.55469,1.75 0.79688,0.66406 1.51562,1.40235 2.16797,2.21094 0.64843,0.8125 1.21093,1.67578 1.6914,2.59375 0.48047,0.92187 0.86328,1.8789 1.15235,2.87499 0.29296,0.9961 0.48047,2.01172 0.57421,3.04688 z m 0,0" id="path35" style="fill:#026678;fill-opacity:1;stroke:#026678;stroke-opacity:1" />
      <path fill-rule="nonzero" fill="#61b7c6" fill-opacity="1" d="m 763.49647,32.228535 c 0.0802,1.036291 0.055,2.0673 -0.0716,3.096985 -0.12673,1.029683 -0.35476,2.038511 -0.67622,3.02268 -0.32543,0.988024 -0.74403,1.931859 -1.25587,2.835411 -0.51179,0.899646 -1.10495,1.747443 -1.7832,2.531625 -0.67442,0.788138 -1.42201,1.49719 -2.23905,2.138923 -0.817,0.637827 -1.69145,1.18896 -2.61561,1.657404 -0.92807,0.468394 -1.89002,0.838681 -2.8898,1.114716 -0.99984,0.279941 -2.01787,0.458073 -3.05411,0.534397 -1.03234,0.07637 -2.06725,0.05115 -3.09693,-0.07559 -1.02968,-0.126733 -2.03466,-0.350808 -3.02268,-0.676233 -0.98412,-0.325375 -1.92795,-0.743981 -2.83151,-1.255819 -0.90361,-0.507933 -1.74744,-1.104937 -2.53168,-1.779294 -0.78808,-0.678314 -1.50104,-1.425966 -2.13887,-2.242955 -0.63782,-0.81699 -1.19286,-1.691497 -1.6574,-2.615609 -0.46839,-0.928068 -0.83868,-1.890015 -1.11862,-2.889848 -0.27603,-0.999782 -0.45417,-2.017819 -0.53054,-3.050153 -0.0764,-1.036243 -0.0511,-2.067251 0.0755,-3.096935 0.12674,-1.029684 0.35086,-2.038563 0.67624,-3.02268 0.32542,-0.988024 0.74403,-1.931859 1.25196,-2.835461 0.51179,-0.899646 1.10494,-1.747444 1.7832,-2.531626 0.67831,-0.788088 1.42591,-1.497139 2.24296,-2.138873 0.81698,-0.637826 1.68753,-1.189009 2.61561,-1.657403 0.92806,-0.468393 1.89001,-0.838681 2.88979,-1.114716 0.99983,-0.279941 2.01783,-0.454167 3.05021,-0.534447 1.03624,-0.07632 2.06725,-0.05115 3.09693,0.07559 1.02968,0.126733 2.03856,0.35086 3.02268,0.676234 0.98412,0.325374 1.93186,0.744031 2.83151,1.255819 0.9036,0.507931 1.74744,1.104936 2.53558,1.779343 0.78418,0.678264 1.49714,1.425915 2.13497,2.242905 0.64173,0.81704 1.19286,1.691497 1.66131,2.615659 0.46448,0.928017 0.83868,1.890015 1.11471,2.889797 0.27994,0.999834 0.45417,2.01782 0.53054,3.050155 z m 0,0" id="path50" style="fill:#026678;fill-opacity:1;stroke:#026678;stroke-opacity:1" stroke="#61b7c6" />
      <path fill-rule="nonzero" fill="#61b7c6" fill-opacity="1" stroke-width="4" stroke-linecap="butt" stroke-linejoin="miter" stroke="#61b7c6" stroke-opacity="1" stroke-miterlimit="4" d="m 693.16602,614.40218 c -5.5e-4,1.51106 -0.14929,3.01488 -0.44523,4.5001 -0.29593,1.48522 -0.73089,2.92393 -1.31155,4.327 -0.58017,1.39739 -1.2917,2.72605 -2.12891,3.98647 -0.84289,1.25993 -1.79761,2.42421 -2.86985,3.49235 -1.07273,1.07382 -2.23827,2.03077 -3.49662,2.87085 -1.25834,0.84008 -2.58577,1.55391 -3.98698,2.12963 -1.40171,0.58141 -2.84212,1.01633 -4.3279,1.31564 -1.48528,0.29362 -2.98654,0.44275 -4.4976,0.4422 -1.51674,-10e-4 -3.01488,-0.14929 -4.5001,-0.44523 -1.48522,-0.29593 -2.92962,-0.73139 -4.327,-1.31156 -1.40307,-0.58066 -2.73173,-1.29219 -3.98647,-2.1289 -1.25993,-0.84289 -2.42421,-1.79761 -3.49804,-2.87035 -1.06814,-1.07223 -2.02509,-2.23777 -2.86516,-3.49612 -0.84576,-1.25884 -1.55391,-2.58578 -2.13532,-3.98748 -0.57572,-1.40121 -1.01633,-2.84211 -1.30995,-4.3274 -0.2993,-1.48578 -0.44275,-2.98654 -0.4422,-4.4976 -0.005,-1.51724 0.14361,-3.01538 0.43954,-4.5006 0.29594,-1.48522 0.73139,-2.92961 1.31156,-4.327 0.58067,-1.40307 1.29219,-2.73173 2.13459,-3.98597 0.84288,-1.25993 1.79761,-2.42421 2.86466,-3.49853 1.07224,-1.06815 2.23778,-2.0251 3.49612,-2.86517 1.25884,-0.84576 2.59146,-1.55341 3.98749,-2.13532 1.40121,-0.57572 2.84211,-1.01633 4.32739,-1.30995 1.48579,-0.2993 2.98655,-0.44275 4.50329,-0.4417 1.51156,-0.005 3.01538,0.14361 4.5006,0.43954 1.48522,0.29593 2.92343,0.73658 4.327,1.31156 1.39739,0.58017 2.72605,1.2917 3.98597,2.13458 1.25993,0.84289 2.42421,1.79762 3.49285,2.86417 1.07382,1.07274 2.03077,2.23828 2.87085,3.49662 0.84008,1.25835 1.55341,2.59146 2.12963,3.98699 0.58141,1.40171 1.01633,2.84211 1.31564,4.32789 0.29362,1.48529 0.44275,2.98655 0.4417,4.50329 z m 0,0" transform="matrix(0.682445,-0.0597062,0.0597062,0.682445,-38.727764,-44.022939)" id="path37" style="fill:#026678;fill-opacity:1;stroke:#026678;stroke-opacity:1" sodipodi:insensitive="true" />
      <path fill-rule="nonzero" fill="#61b7c6" fill-opacity="1" stroke-width="2" stroke-linecap="butt" stroke-linejoin="miter" stroke="#61b7c6" stroke-opacity="1" stroke-miterlimit="4" d="m 515.1458,410.52289 c -5.6e-4,1.51107 -0.1488,3.00921 -0.44473,4.49442 -0.29593,1.48522 -0.73139,2.92962 -1.31156,4.327 -0.58066,1.40307 -1.29219,2.73173 -2.1294,3.99215 -0.84289,1.25993 -1.79761,2.42421 -2.86985,3.49236 -1.07273,1.07382 -2.23778,2.02509 -3.49662,2.87084 -1.25834,0.84008 -2.58528,1.54823 -3.98699,2.12964 -1.4017,0.5814 -2.84211,1.01633 -4.32739,1.30995 -1.48578,0.2993 -2.98704,0.44843 -4.49811,0.44788 -1.51674,-10e-4 -3.01488,-0.14929 -4.5001,-0.44522 -1.48522,-0.29594 -2.92961,-0.73139 -4.327,-1.31156 -1.39739,-0.58017 -2.73172,-1.29219 -3.98597,-2.13459 -1.26042,-0.8372 -2.42421,-1.79761 -3.49853,-2.86466 -1.06814,-1.07224 -2.02509,-2.23778 -2.86517,-3.49612 -0.84575,-1.25884 -1.55341,-2.59146 -2.13531,-3.98749 -0.57573,-1.40121 -1.01633,-2.84211 -1.30995,-4.32739 -0.29931,-1.48579 -0.44275,-2.98655 -0.4422,-4.49761 -0.005,-1.51724 0.14361,-3.01538 0.43954,-4.5006 0.29593,-1.48522 0.73707,-2.92911 1.31156,-4.327 0.58066,-1.40307 1.29219,-2.73173 2.13508,-3.99165 0.84239,-1.25424 1.79761,-2.42421 2.86985,-3.49235 1.06705,-1.07432 2.23209,-2.02559 3.49094,-2.87135 1.25834,-0.84008 2.59096,-1.54773 3.98698,-2.12963 1.40171,-0.58141 2.84212,-1.01633 4.3274,-1.30995 1.48578,-0.29931 2.98655,-0.44276 4.50379,-0.44739 1.51106,5.5e-4 3.01488,0.14929 4.5001,0.44523 1.48522,0.29593 2.92393,0.73089 4.327,1.31156 1.39739,0.58016 2.72604,1.29169 3.98597,2.13458 1.26042,0.83721 2.42421,1.79761 3.49285,2.86417 1.07382,1.07273 2.03077,2.23827 2.87085,3.49662 0.84007,1.25834 1.55341,2.59145 2.12963,3.98698 0.58141,1.40171 1.01633,2.84212 1.31563,4.3279 0.29362,1.48528 0.44275,2.98654 0.44171,4.50328 z m 0,0" transform="matrix(0.682445,-0.0597062,0.0597062,0.682445,-27.018925,-55.183327)" id="path38" style="fill:#026678;fill-opacity:1;stroke:#026678;stroke-opacity:1" sodipodi:insensitive="true" />
      <path fill-rule="nonzero" fill="#61b7c6" fill-opacity="1" stroke-width="3" stroke-linecap="butt" stroke-linejoin="miter" stroke="#61b7c6" stroke-opacity="1" stroke-miterlimit="4" d="m 150.07547,561.28866 c -0.001,1.51675 -0.14929,3.01489 -0.44523,4.5001 -0.29593,1.48522 -0.73139,2.92962 -1.31155,4.327 -0.58017,1.39739 -1.2922,2.73173 -2.12891,3.98647 -0.84289,1.25993 -1.79761,2.42421 -2.87034,3.49804 -1.07224,1.06814 -2.23778,2.02509 -3.49613,2.86516 -1.25884,0.84576 -2.58577,1.55391 -3.98748,2.13532 -1.39553,0.57622 -2.84211,1.01633 -4.3274,1.30995 -1.48578,0.29931 -2.98654,0.44275 -4.4976,0.4422 -1.51724,0.005 -3.01538,-0.14361 -4.5006,-0.43954 -1.48522,-0.29593 -2.92912,-0.73707 -4.327,-1.31156 -1.39739,-0.58017 -2.72605,-1.2917 -3.98597,-2.13459 -1.25993,-0.84288 -2.42421,-1.79761 -3.49803,-2.87034 -1.06864,-1.06656 -2.02559,-2.2321 -2.86567,-3.49044 -0.84576,-1.25884 -1.55341,-2.59146 -2.13531,-3.98749 -0.57573,-1.40121 -1.01633,-2.84211 -1.30996,-4.32739 -0.29362,-1.48529 -0.44275,-2.98655 -0.4417,-4.50329 5.5e-4,-1.51106 0.14361,-3.01538 0.43954,-4.5006 0.29594,-1.48522 0.73658,-2.92343 1.31724,-4.3265 0.57449,-1.39789 1.28602,-2.72654 2.12891,-3.98647 0.84289,-1.25992 1.79761,-2.42421 2.86984,-3.49235 1.06706,-1.07432 2.2326,-2.03127 3.49094,-2.87135 1.26403,-0.83958 2.59146,-1.55341 3.99267,-2.12913 1.39603,-0.58191 2.83644,-1.01683 4.32222,-1.31613 1.48528,-0.29363 2.98654,-0.44275 4.50328,-0.44171 1.51106,5.5e-4 3.01488,0.14929 4.5001,0.44523 1.48522,0.29593 2.92393,0.73089 4.327,1.31156 1.39739,0.58016 2.72605,1.29169 3.98647,2.1289 1.25993,0.84289 2.42421,1.79761 3.49235,2.86985 1.07383,1.07273 2.03078,2.23827 2.87085,3.49662 0.84008,1.25834 1.55391,2.58577 2.12964,3.98698 0.5814,1.40171 1.01632,2.84212 1.31563,4.3279 0.29362,1.48528 0.44275,2.98654 0.4422,4.4976 z m 0,0" transform="matrix(0.682445,-0.0597062,0.0597062,0.682445,-36.629984,-76.244723)" id="path34" style="fill:#026678;fill-opacity:1;stroke:#026678;stroke-width:2;stroke-linecap:butt;stroke-linejoin:miter;stroke-miterlimit:4;stroke-opacity:1" />
    </g>
  </g>
</svg>