<?xml version='1.0' encoding='UTF-8'?>
<svg xmlns="http://www.w3.org/2000/svg" width="747.03815pt" height="564.91589pt" version="1.1" viewBox="0 0 747.03816 564.91591" xml:space="preserve" id="svg26">
<style>
    @media (prefers-color-scheme: dark) {
    [fill='#026678' i] { fill: #61b7c6 !important; }
    [fill='#58c245' i] { fill: #aaeb85 !important; }
    [stroke='#026678' i] { stroke: #61b7c6 !important; }
    [stroke='#58c245' i] { stroke: #aaeb85 !important; }
  }
  </style><defs id="defs1"><mask id="mask-powermask-path-effect55" maskUnits="userSpaceOnUse"><path id="mask-powermask-path-effect55_box" d="m 66.074,9.9612 h 706.6 v 362.95 h -706.6 z" fill="#ffffff" /><path d="M 268.92,375.77 605.66,204.19 c 0.92188,-0.46875 1.8828,-0.84375 2.8789,-1.125 0.99609,-0.28125 2.0078,-0.46095 3.0391,-0.54297 1.0312,-0.082 2.0625,-0.0586 3.0898,0.0625 1.0273,0.1211 2.0312,0.33985 3.0156,0.66016 0.98437,0.32031 1.9258,0.73438 2.8281,1.2383 0.90234,0.50391 1.75,1.0938 2.5352,1.7656 0.78515,0.67187 1.5,1.4141 2.1406,2.2266 0.64063,0.8125 1.1953,1.6797 1.6641,2.6016 0.47266,0.92187 0.84766,1.8828 1.1289,2.875 0.28125,0.9961 0.46093,2.0117 0.54297,3.043 0.0781,1.0312 0.0586,2.0586 -0.0625,3.0859 -0.12109,1.0273 -0.34375,2.0352 -0.66015,3.0195 -0.32031,0.98437 -0.73438,1.9258 -1.2383,2.8281 -0.50782,0.90235 -1.0938,1.75 -1.7656,2.5352 -0.6718,0.7852 -1.4141,1.5 -2.2266,2.1406 -0.8125,0.64062 -1.6797,1.1953 -2.6016,1.6641 l -336.74,171.58 c -0.92187,0.46875 -1.8828,0.84375 -2.8789,1.125 -0.99218,0.28125 -2.0078,0.46094 -3.0391,0.54297 -1.0312,0.082 -2.0586,0.0625 -3.0898,-0.0586 -1.0273,-0.125 -2.0313,-0.34375 -3.0156,-0.66406 -0.98438,-0.32032 -1.9258,-0.73047 -2.8281,-1.2383 -0.90234,-0.50391 -1.75,-1.0938 -2.5352,-1.7656 -0.78515,-0.67187 -1.5,-1.4141 -2.1406,-2.2266 -0.64063,-0.8125 -1.1953,-1.6797 -1.6641,-2.6016 -0.47266,-0.92188 -0.84766,-1.8789 -1.1289,-2.875 -0.27734,-0.9961 -0.46094,-2.0117 -0.54297,-3.043 -0.0781,-1.0312 -0.0586,-2.0586 0.0625,-3.0859 0.1211,-1.0273 0.34376,-2.0352 0.66016,-3.0195 0.32031,-0.98047 0.73438,-1.9258 1.2383,-2.8281 0.50782,-0.90234 1.0938,-1.7461 1.7656,-2.5352 0.67187,-0.78516 1.4141,-1.5 2.2266,-2.1406 0.8125,-0.64062 1.6797,-1.1953 2.6016,-1.6641 z" id="path1" /></mask></defs><text transform="scale(1.0134794,0.98669988)" x="90.417145" y="556.46185" fill="#58c245" font-family="'Helvetica Neue'" font-size="88.7778px" font-weight="bold" stroke-width="0.887558" style="font-variant-ligatures:normal;font-variant-caps:normal;font-variant-numeric:normal;font-variant-east-asian:normal" xml:space="preserve" id="text3"><tspan x="90.417145" y="556.46185" font-family="'Helvetica Neue'" font-size="88.7778px" font-weight="bold" stroke-width="0.887558" style="font-variant-ligatures:normal;font-variant-caps:normal;font-variant-numeric:normal;font-variant-east-asian:normal" id="tspan3"><tspan fill="#026678" style="font-variant-ligatures:normal;font-variant-caps:normal;font-variant-numeric:normal;font-variant-east-asian:normal;stroke-width:0.887558" id="tspan1">Experi</tspan><tspan fill="#58c245" style="font-variant-ligatures:normal;font-variant-caps:normal;font-variant-numeric:normal;font-variant-east-asian:normal;stroke-width:0.887558" id="tspan2">maestro</tspan></tspan></text><g transform="translate(-19.404,-17.100409)" mask="url(#mask-powermask-path-effect55)" id="g26"><g fill="none" stroke="#026678" stroke-miterlimit="10" stroke-width="13.701" id="g10"><path transform="matrix(0.68505,0,0,0.68505,-3.7911,-85.634)" d="m 147.17,550.1 c 139.89,-78.068 258.16,-61.104 354.83,50.897 96.668,112 177.67,59 243,-159 65.329,-218 175.81,-309.04 331.45,-273.13" stroke-width="20" id="path3" /><g stroke-width="10.948" id="g6"><path transform="matrix(0.68505,0,0,0.68505,-3.7911,-85.634)" d="m 311.48,379.28 c 0,0 34.937,54.726 77.697,125.19" id="path4" /><path transform="matrix(0.68505,0,0,0.68505,-3.7911,-85.634)" d="m 685.79,597.5 c 0,0 69.308,-76.515 181.65,-197.45" id="path5" /><path transform="matrix(0.68505,0,0,0.68505,-3.7911,-85.634)" d="m 788.53,327.72 c 0,0 47.891,44.359 78.888,72.162" id="path6" /></g><path transform="matrix(0.68505,0,0,0.68505,-3.7911,-85.634)" d="m 512.09,406.46 c 0,0 97.356,-28.157 265.8,-75.707" display="none" stroke-width="20" id="path7" /><path transform="matrix(0.68505,0,0,0.68505,-3.7911,-85.634)" d="m 648.23,607.08 c 0,0 -75.103,-25.169 -225.31,-75.507" stroke-width="10.948" id="path8" /><path transform="matrix(0.68505,0,0,0.68505,-3.7911,-85.634)" d="m 141.5,543.35 c 103.37,-127.8 184.69,-188.87 243.95,-183.22 59.262,5.6508 109.07,40.519 149.42,104.59 40.348,64.08 79.168,109.51 116.46,136.28" stroke-width="20" id="path9" /><path transform="matrix(0.68505,0,0,0.68505,-3.7911,-85.634)" d="m 489.35,415.4 c 0,0 -32.421,39.035 -73.904,90.833" stroke-width="10.948" id="path10" /></g><g fill="none" stroke="#58c245" stroke-miterlimit="10" id="g15"><path transform="matrix(0.68505,0,0,0.68505,-3.7911,-85.634)" d="m 689.96,626.14 c 64.303,38.136 122.11,22.98 173.43,-45.469 51.319,-68.448 124.63,-101.67 219.93,-99.673" stroke-width="20" id="path11" /><g stroke-width="10.948" id="g14"><path transform="matrix(0.68505,0,0,0.68505,-3.7911,-85.634)" d="m 811.73,321.98 c 0,0 77.52,-16.399 232.55,-49.198" id="path12" /><path transform="matrix(0.68505,0,0,0.68505,-3.7911,-85.634)" d="m 891.78,406.8 c 0,0 64.428,22.478 193.28,67.439" id="path13" /><path transform="matrix(0.68505,0,0,0.68505,-3.7911,-85.634)" d="m 889.21,386.44 c 0,0 52.813,-35.216 158.43,-105.65" id="path14" /></g></g><g fill="#58c245" stroke="#58c245" stroke-width="0.68505" id="g16"><path d="m 766.04,241.88 c 0.0899,1.0352 0.0781,2.0664 -0.0351,3.0976 -0.11326,1.0312 -0.32423,2.043 -0.63668,3.0312 -0.31252,0.98829 -0.71875,1.9375 -1.2149,2.8477 -0.49994,0.91016 -1.082,1.7617 -1.75,2.5586 -0.66795,0.79297 -1.4063,1.5156 -2.2148,2.1641 -0.80863,0.64844 -1.6719,1.2148 -2.5938,1.6953 -0.92187,0.47655 -1.8789,0.86328 -2.875,1.1523 -0.99611,0.28906 -2.0117,0.48046 -3.043,0.57031 -1.0352,0.0899 -2.0664,0.082 -3.0977,-0.0312 -1.0312,-0.11328 -2.043,-0.32812 -3.0312,-0.64062 -0.98829,-0.3086 -1.9414,-0.71485 -2.8477,-1.2148 -0.91014,-0.49999 -1.7617,-1.082 -2.5586,-1.75 -0.79301,-0.66407 -1.5156,-1.4024 -2.1641,-2.2148 -0.65231,-0.80861 -1.2148,-1.6719 -1.6953,-2.5938 -0.47655,-0.91797 -0.86327,-1.875 -1.1523,-2.8711 -0.29297,-0.99609 -0.4805,-2.0117 -0.57031,-3.0469 -0.0971,-1.031 -0.082,-2.0664 0.0312,-3.0976 0.11326,-1.0312 0.32814,-2.0391 0.63674,-3.0312 0.31246,-0.98828 0.71876,-1.9375 1.2187,-2.8476 0.5,-0.91016 1.0821,-1.7617 1.75,-2.5586 0.66402,-0.79296 1.4024,-1.5156 2.2109,-2.1641 0.80863,-0.64844 1.6758,-1.2148 2.5938,-1.6914 0.92187,-0.48047 1.8789,-0.86719 2.875,-1.1562 0.9961,-0.28907 2.0118,-0.48048 3.0469,-0.57032 1.0313,-0.0898 2.0664,-0.0781 3.0976,0.0352 1.0312,0.11328 2.039,0.32422 3.0312,0.63672 0.98829,0.3125 1.9375,0.71485 2.8477,1.2148 0.91014,0.5 1.7617,1.082 2.5546,1.75 0.79686,0.66797 1.5196,1.4062 2.168,2.2148 0.64838,0.8086 1.2148,1.6719 1.6914,2.5938 0.48047,0.91797 0.86326,1.8789 1.1562,2.875 0.28911,0.99609 0.4805,2.0078 0.57031,3.043 z" id="path15" /><path d="m 740.14,98.437 c 0.0906,1.0351 0.0781,2.0664 -0.0351,3.0977 -0.11333,1.0312 -0.32422,2.043 -0.63675,3.0312 -0.31252,0.99219 -0.71875,1.9414 -1.2148,2.8516 -0.5,0.90625 -1.082,1.7617 -1.75,2.5547 -0.66795,0.79687 -1.4062,1.5156 -2.2148,2.168 -0.80856,0.64844 -1.6719,1.2109 -2.5938,1.6914 -0.9219,0.4805 -1.8789,0.86328 -2.875,1.1523 -0.99604,0.29297 -2.0117,0.48438 -3.043,0.57422 -1.0351,0.0899 -2.0664,0.0781 -3.0977,-0.0352 -1.0312,-0.11328 -2.043,-0.32422 -3.0312,-0.63672 -0.98822,-0.3125 -1.9375,-0.71875 -2.8476,-1.2188 -0.91021,-0.49609 -1.7617,-1.082 -2.5586,-1.7461 -0.79294,-0.66798 -1.5156,-1.4062 -2.164,-2.2148 -0.65237,-0.80859 -1.2148,-1.6758 -1.6953,-2.5938 -0.47662,-0.92187 -0.86333,-1.8789 -1.1524,-2.875 -0.29297,-0.99609 -0.48043,-2.0117 -0.57031,-3.043 -0.0906,-1.0354 -0.082,-2.0664 0.0312,-3.0977 0.11333,-1.0313 0.32814,-2.043 0.63675,-3.0312 0.31252,-0.99219 0.71875,-1.9414 1.2188,-2.8516 0.5,-0.90625 1.082,-1.7617 1.75,-2.5547 0.6641,-0.79688 1.4024,-1.5156 2.211,-2.168 0.81248,-0.64844 1.6757,-1.2109 2.5938,-1.6914 0.92187,-0.48046 1.8789,-0.86327 2.875,-1.1523 0.99604,-0.29296 2.0117,-0.48046 3.0468,-0.57421 1.0313,-0.08985 2.0664,-0.07813 3.0977,0.03515 1.0313,0.11328 2.0391,0.32422 3.0312,0.63672 0.98829,0.3125 1.9375,0.71875 2.8477,1.2188 0.91014,0.49609 1.7617,1.082 2.5547,1.7461 0.79686,0.66797 1.5195,1.4063 2.1679,2.2148 0.64846,0.8086 1.2148,1.6758 1.6914,2.5938 0.48054,0.92187 0.86333,1.8789 1.1563,2.875 0.28905,0.9961 0.48043,2.0117 0.57031,3.043 z" id="path16" /></g><g fill="#026678" stroke="#026678" id="g25"><g id="g20"><g stroke-width="2" id="g19"><path transform="matrix(0.68244,-0.059706,0.059706,0.68244,-21.241,-37.664)" d="m 812.23,326.71 c -10e-4,1.5167 -0.14929,3.0149 -0.44523,4.5001 -0.29593,1.4852 -0.73139,2.9296 -1.3116,4.327 -0.58066,1.4031 -1.2922,2.7317 -2.1294,3.9922 -0.84239,1.2542 -1.7976,2.4242 -2.8698,3.4924 -1.0727,1.0738 -2.2378,2.0251 -3.4966,2.8708 -1.2584,0.84008 -2.5853,1.5482 -3.987,2.1296 -1.4017,0.58141 -2.8421,1.0163 -4.3274,1.31 -1.4858,0.2993 -2.987,0.44843 -4.4981,0.44788 -1.5167,-0.001 -3.0149,-0.14929 -4.5001,-0.44523 -1.4852,-0.29593 -2.9296,-0.73139 -4.327,-1.3116 -1.4031,-0.58066 -2.7317,-1.2922 -3.986,-2.1346 -1.2604,-0.83721 -2.4299,-1.7981 -3.4985,-2.8647 -1.0682,-1.0722 -2.0251,-2.2378 -2.8708,-3.4966 -0.84008,-1.2584 -1.5477,-2.591 -2.1296,-3.987 -0.5814,-1.4017 -1.0163,-2.8421 -1.31,-4.3274 -0.2993,-1.4858 -0.44275,-2.9865 -0.44788,-4.4981 10e-4,-1.5167 0.14929,-3.0149 0.44522,-4.5001 0.29594,-1.4852 0.73139,-2.9296 1.3116,-4.327 0.58067,-1.4031 1.2922,-2.7317 2.1351,-3.9917 0.83671,-1.2547 1.7976,-2.4242 2.8642,-3.4928 1.0727,-1.0738 2.2378,-2.0251 3.4966,-2.8708 1.2584,-0.84008 2.591,-1.5477 3.987,-2.1296 1.4017,-0.5814 2.8421,-1.0163 4.3274,-1.31 1.4858,-0.2993 2.9865,-0.44275 4.5038,-0.44738 1.5111,5.5e-4 3.0092,0.14879 4.4944,0.44472 1.4909,0.29643 2.9296,0.7314 4.327,1.3116 1.4031,0.58067 2.7317,1.2922 3.9916,2.1351 1.2604,0.83721 2.4242,1.7976 3.4928,2.8642 1.0738,1.0727 2.0308,2.2383 2.8708,3.4966 0.84,1.2583 1.5477,2.591 2.1296,3.987 0.58141,1.4017 1.0163,2.8421 1.3156,4.3279 0.29362,1.4853 0.44275,2.9866 0.4422,4.4976 z" id="path17" /><path transform="matrix(0.68244,-0.059706,0.059706,0.68244,-25.609,-65.946)" d="m 335.77,379.09 c -10e-4,1.5167 -0.14361,3.0154 -0.43387,4.5011 -0.29025,1.4857 -0.71953,2.9249 -1.2827,4.3238 -0.5693,1.4041 -1.2633,2.7285 -2.0891,3.99 -0.82016,1.2619 -1.7574,2.422 -2.8074,3.4978 -1.0438,1.0706 -2.1862,2.0239 -3.4161,2.8664 -1.2356,0.84206 -2.5342,1.5527 -3.9013,2.1314 -1.3728,0.57821 -2.7791,1.0161 -4.236,1.3122 -1.4512,0.2966 -2.9179,0.44303 -4.4005,0.44497 -1.4822,-0.004 -2.9462,-0.14901 -4.403,-0.44246 -1.4506,-0.29863 -2.8661,-0.73728 -4.2351,-1.315 -1.369,-0.57768 -2.6687,-1.2924 -3.9003,-2.1328 -1.2315,-0.8404 -2.3669,-1.7983 -3.418,-2.8691 -1.0454,-1.0702 -1.9853,-2.2343 -2.8084,-3.4912 -0.82254,-1.2625 -1.5136,-2.588 -2.0837,-3.9887 -0.56437,-1.4002 -0.99361,-2.8401 -1.281,-4.3306 -0.29363,-1.4853 -0.43757,-2.9804 -0.43652,-4.4971 0.001,-1.5167 0.14361,-3.0154 0.43386,-4.5011 0.29025,-1.4857 0.71953,-2.9249 1.2827,-4.3238 0.56881,-1.3984 1.2633,-2.7285 2.0891,-3.99 0.81967,-1.2562 1.7574,-2.422 2.8069,-3.4921 1.0443,-1.0763 2.1866,-2.0296 3.4166,-2.8721 1.2299,-0.84257 2.5342,-1.5527 3.9013,-2.1314 1.3671,-0.5787 2.7791,-1.0161 4.236,-1.3122 1.4512,-0.29661 2.9179,-0.44304 4.4005,-0.44497 1.4822,0.004 2.9462,0.14901 4.4025,0.44813 1.4511,0.29295 2.861,0.73111 4.2299,1.3088 1.369,0.57769 2.6687,1.2924 3.906,2.1333 1.2315,0.8404 2.3669,1.7983 3.418,2.8691 1.0454,1.0702 1.9796,2.2338 2.8022,3.4963 0.82872,1.2573 1.5193,2.5885 2.0899,3.9835 0.56437,1.4002 0.99311,2.8458 1.2811,4.3306 0.28794,1.4848 0.43707,2.986 0.43652,4.4971 z" id="path18" /><path transform="matrix(0.68244,-0.059706,0.059706,0.68244,-25.358,-32.649)" d="m 893.07,399.21 c -0.001,1.5168 -0.14929,3.0149 -0.44522,4.5001 -0.29593,1.4852 -0.73139,2.9296 -1.3116,4.327 -0.58017,1.3974 -1.2917,2.726 -2.1289,3.9865 -0.84289,1.2599 -1.7976,2.4242 -2.8704,3.498 -1.0722,1.0681 -2.2378,2.0251 -3.4961,2.8652 -1.2583,0.84007 -2.5858,1.5539 -3.9875,2.1353 -1.3955,0.57622 -2.8421,1.0163 -4.3274,1.31 -1.4853,0.2937 -2.9866,0.44275 -4.4976,0.4422 -1.5167,-10e-4 -3.0149,-0.14929 -4.5006,-0.43954 -1.4852,-0.29593 -2.9291,-0.73707 -4.3265,-1.3172 -1.3979,-0.57449 -2.7265,-1.286 -3.9865,-2.1289 -1.2599,-0.84289 -2.4242,-1.7976 -3.498,-2.8704 -1.0686,-1.0666 -2.0256,-2.2321 -2.8652,-3.4961 -0.84576,-1.2588 -1.5539,-2.5858 -2.1353,-3.9875 -0.57622,-1.3955 -1.0163,-2.8421 -1.31,-4.3274 -0.29412,-1.4796 -0.44324,-2.9809 -0.44219,-4.4976 5.5e-4,-1.5111 0.14361,-3.0154 0.43954,-4.5006 0.29593,-1.4852 0.73657,-2.9234 1.3116,-4.327 0.58016,-1.3974 1.2917,-2.726 2.1346,-3.986 0.8429,-1.26 1.7976,-2.4242 2.8704,-3.498 1.0666,-1.0686 2.2321,-2.0256 3.4904,-2.8657 1.264,-0.83958 2.5915,-1.5534 3.9927,-2.1291 1.396,-0.58191 2.8369,-1.0225 4.3222,-1.3161 1.4853,-0.29363 2.9865,-0.44275 4.5033,-0.44171 1.5111,5.5e-4 3.0149,0.14929 4.5001,0.44523 1.4857,0.29025 2.9239,0.73089 4.327,1.3116 1.3974,0.58016 2.7265,1.286 3.9865,2.1289 1.2599,0.84289 2.4242,1.7976 3.4924,2.8698 1.0738,1.0727 2.0308,2.2383 2.8708,3.4966 0.84007,1.2583 1.5539,2.5858 2.1296,3.987 0.5819,1.396 1.0163,2.8421 1.3156,4.3279 0.29363,1.4853 0.44325,2.9809 0.4422,4.4976 z" id="path19" /></g><path d="m 288.19,270.63 c 0.0899,1.0312 0.0781,2.0664 -0.0351,3.0976 -0.11328,1.0312 -0.32422,2.0391 -0.63672,3.0312 -0.3125,0.98828 -0.71875,1.9375 -1.2188,2.8476 -0.49609,0.91016 -1.082,1.7617 -1.7461,2.5547 -0.66797,0.79687 -1.4062,1.5195 -2.2148,2.168 -0.8086,0.64843 -1.6758,1.2148 -2.5938,1.6914 -0.92188,0.48047 -1.8789,0.86328 -2.875,1.1562 -0.99609,0.28907 -2.0117,0.48047 -3.043,0.57031 -1.0352,0.0899 -2.0664,0.0781 -3.0976,-0.0351 -1.0312,-0.11328 -2.043,-0.32422 -3.0312,-0.63672 -0.99218,-0.3125 -1.9414,-0.71875 -2.8516,-1.2148 -0.91016,-0.50001 -1.7617,-1.082 -2.5547,-1.75 -0.79687,-0.66797 -1.5156,-1.4063 -2.168,-2.2148 -0.64844,-0.80859 -1.2109,-1.6719 -1.6914,-2.5938 -0.48046,-0.92187 -0.86327,-1.8789 -1.1523,-2.875 -0.29297,-0.99609 -0.48437,-2.0117 -0.57422,-3.043 -0.0899,-1.0352 -0.0781,-2.0664 0.0352,-3.0977 0.11329,-1.0312 0.32423,-2.043 0.63672,-3.0312 0.3125,-0.98828 0.71876,-1.9414 1.2188,-2.8477 0.49609,-0.91015 1.082,-1.7617 1.7461,-2.5586 0.66797,-0.79296 1.4062,-1.5156 2.2148,-2.1641 0.8086,-0.65234 1.6758,-1.2148 2.5938,-1.6953 0.92187,-0.47656 1.8789,-0.86328 2.875,-1.1523 0.99609,-0.28907 2.0117,-0.48047 3.043,-0.57031 1.0351,-0.094 2.0664,-0.082 3.0977,0.0312 1.0312,0.11328 2.043,0.32812 3.0312,0.63672 0.99219,0.31249 1.9414,0.71874 2.8516,1.2187 0.90626,0.5 1.7617,1.082 2.5547,1.75 0.79688,0.66406 1.5156,1.4024 2.168,2.2109 0.64843,0.8125 1.2109,1.6758 1.6914,2.5938 0.48047,0.92187 0.86328,1.8789 1.1524,2.875 0.29296,0.9961 0.48047,2.0117 0.57421,3.0469 z" stroke-width="1.3701" id="path20" /></g><path d="m 763.5,32.229 c 0.0802,1.0363 0.055,2.0673 -0.0716,3.097 -0.12673,1.0297 -0.35476,2.0385 -0.67622,3.0227 -0.32543,0.98802 -0.74403,1.9319 -1.2559,2.8354 -0.51179,0.89965 -1.105,1.7474 -1.7832,2.5316 -0.67442,0.78814 -1.422,1.4972 -2.239,2.1389 -0.817,0.63783 -1.6914,1.189 -2.6156,1.6574 -0.92807,0.46839 -1.89,0.83868 -2.8898,1.1147 -0.99984,0.27994 -2.0179,0.45807 -3.0541,0.5344 -1.0323,0.07637 -2.0672,0.05115 -3.0969,-0.07559 -1.0297,-0.12673 -2.0347,-0.35081 -3.0227,-0.67623 -0.98412,-0.32538 -1.928,-0.74398 -2.8315,-1.2558 -0.90361,-0.50793 -1.7474,-1.1049 -2.5317,-1.7793 -0.78808,-0.67831 -1.501,-1.426 -2.1389,-2.243 -0.63782,-0.81699 -1.1929,-1.6915 -1.6574,-2.6156 -0.46839,-0.92807 -0.83868,-1.89 -1.1186,-2.8898 -0.27603,-0.99978 -0.45417,-2.0178 -0.53054,-3.0502 -0.0764,-1.0362 -0.0511,-2.0673 0.0755,-3.0969 0.12674,-1.0297 0.35086,-2.0386 0.67624,-3.0227 0.32542,-0.98802 0.74403,-1.9319 1.252,-2.8355 0.51179,-0.89965 1.1049,-1.7474 1.7832,-2.5316 0.67831,-0.78809 1.4259,-1.4971 2.243,-2.1389 0.81698,-0.63783 1.6875,-1.189 2.6156,-1.6574 0.92806,-0.46839 1.89,-0.83868 2.8898,-1.1147 0.99983,-0.27994 2.0178,-0.45417 3.0502,-0.53445 1.0362,-0.07632 2.0672,-0.05115 3.0969,0.07559 1.0297,0.12673 2.0386,0.35086 3.0227,0.67623 0.9841,0.32537 1.9319,0.74403 2.8315,1.2558 0.9036,0.50793 1.7474,1.1049 2.5356,1.7793 0.78418,0.67826 1.4971,1.4259 2.135,2.2429 0.64173,0.81704 1.1929,1.6915 1.6613,2.6157 0.46448,0.92802 0.83868,1.89 1.1147,2.8898 0.27994,0.99983 0.45417,2.0178 0.53054,3.0502 z" id="path21" /><g id="g24"><path transform="matrix(0.68244,-0.059706,0.059706,0.68244,-38.728,-44.023)" d="m 693.17,614.4 c -5.5e-4,1.5111 -0.14929,3.0149 -0.44523,4.5001 -0.29593,1.4852 -0.73089,2.9239 -1.3116,4.327 -0.58017,1.3974 -1.2917,2.726 -2.1289,3.9865 -0.84289,1.2599 -1.7976,2.4242 -2.8698,3.4924 -1.0727,1.0738 -2.2383,2.0308 -3.4966,2.8708 -1.2583,0.84008 -2.5858,1.5539 -3.987,2.1296 -1.4017,0.58141 -2.8421,1.0163 -4.3279,1.3156 -1.4853,0.29362 -2.9865,0.44275 -4.4976,0.4422 -1.5167,-10e-4 -3.0149,-0.14929 -4.5001,-0.44523 -1.4852,-0.29593 -2.9296,-0.73139 -4.327,-1.3116 -1.4031,-0.58066 -2.7317,-1.2922 -3.9865,-2.1289 -1.2599,-0.84289 -2.4242,-1.7976 -3.498,-2.8704 -1.0681,-1.0722 -2.0251,-2.2378 -2.8652,-3.4961 -0.84576,-1.2588 -1.5539,-2.5858 -2.1353,-3.9875 -0.57572,-1.4012 -1.0163,-2.8421 -1.31,-4.3274 -0.2993,-1.4858 -0.44275,-2.9865 -0.4422,-4.4976 -0.005,-1.5172 0.14361,-3.0154 0.43954,-4.5006 0.29594,-1.4852 0.73139,-2.9296 1.3116,-4.327 0.58067,-1.4031 1.2922,-2.7317 2.1346,-3.986 0.84288,-1.2599 1.7976,-2.4242 2.8647,-3.4985 1.0722,-1.0682 2.2378,-2.0251 3.4961,-2.8652 1.2588,-0.84576 2.5915,-1.5534 3.9875,-2.1353 1.4012,-0.57572 2.8421,-1.0163 4.3274,-1.31 1.4858,-0.2993 2.9866,-0.44275 4.5033,-0.4417 1.5116,-0.005 3.0154,0.14361 4.5006,0.43954 1.4852,0.29593 2.9234,0.73658 4.327,1.3116 1.3974,0.58017 2.726,1.2917 3.986,2.1346 1.2599,0.84289 2.4242,1.7976 3.4928,2.8642 1.0738,1.0727 2.0308,2.2383 2.8708,3.4966 0.84008,1.2584 1.5534,2.5915 2.1296,3.987 0.58141,1.4017 1.0163,2.8421 1.3156,4.3279 0.29362,1.4853 0.44275,2.9866 0.4417,4.5033 z" stroke-width="4" id="path22" /><path transform="matrix(0.68244,-0.059706,0.059706,0.68244,-27.019,-55.183)" d="m 515.15,410.52 c -5.6e-4,1.5111 -0.1488,3.0092 -0.44473,4.4944 -0.29593,1.4852 -0.73139,2.9296 -1.3116,4.327 -0.58066,1.4031 -1.2922,2.7317 -2.1294,3.9922 -0.84289,1.2599 -1.7976,2.4242 -2.8698,3.4924 -1.0727,1.0738 -2.2378,2.0251 -3.4966,2.8708 -1.2583,0.84008 -2.5853,1.5482 -3.987,2.1296 -1.4017,0.5814 -2.8421,1.0163 -4.3274,1.31 -1.4858,0.2993 -2.987,0.44843 -4.4981,0.44788 -1.5167,-10e-4 -3.0149,-0.14929 -4.5001,-0.44522 -1.4852,-0.29594 -2.9296,-0.73139 -4.327,-1.3116 -1.3974,-0.58021 -2.7317,-1.2922 -3.986,-2.1346 -1.2604,-0.8372 -2.4242,-1.7976 -3.4985,-2.8647 -1.0681,-1.0722 -2.0251,-2.2378 -2.8652,-3.4961 -0.84575,-1.2588 -1.5534,-2.5915 -2.1353,-3.9875 -0.57573,-1.4012 -1.0163,-2.8421 -1.31,-4.3274 -0.29931,-1.4858 -0.44275,-2.9866 -0.4422,-4.4976 -0.005,-1.5172 0.14361,-3.0154 0.43954,-4.5006 0.29593,-1.4852 0.73707,-2.9291 1.3116,-4.327 0.58066,-1.4031 1.2922,-2.7317 2.1351,-3.9916 0.84239,-1.2542 1.7976,-2.4242 2.8698,-3.4924 1.067,-1.0743 2.2321,-2.0256 3.4909,-2.8714 1.2583,-0.84008 2.591,-1.5477 3.987,-2.1296 1.4017,-0.58141 2.8421,-1.0163 4.3274,-1.31 1.4858,-0.29931 2.9866,-0.44276 4.5038,-0.44739 1.5111,5.5e-4 3.0149,0.14929 4.5001,0.44523 1.4852,0.29593 2.9239,0.73089 4.327,1.3116 1.3974,0.58016 2.726,1.2917 3.986,2.1346 1.2604,0.83721 2.4242,1.7976 3.4928,2.8642 1.0738,1.0727 2.0308,2.2383 2.8708,3.4966 0.84007,1.2583 1.5534,2.5914 2.1296,3.987 0.58141,1.4017 1.0163,2.8421 1.3156,4.3279 0.29362,1.4853 0.44275,2.9865 0.44171,4.5033 z" stroke-width="2" id="path23" /><path transform="matrix(0.68244,-0.059706,0.059706,0.68244,-36.63,-76.245)" d="m 150.08,561.29 c -0.001,1.5168 -0.14929,3.0149 -0.44523,4.5001 -0.29593,1.4852 -0.73139,2.9296 -1.3116,4.327 -0.58017,1.3974 -1.2922,2.7317 -2.1289,3.9865 -0.84289,1.2599 -1.7976,2.4242 -2.8703,3.498 -1.0722,1.0681 -2.2378,2.0251 -3.4961,2.8652 -1.2588,0.84576 -2.5858,1.5539 -3.9875,2.1353 -1.3955,0.57622 -2.8421,1.0163 -4.3274,1.31 -1.4858,0.29931 -2.9865,0.44275 -4.4976,0.4422 -1.5172,0.005 -3.0154,-0.14361 -4.5006,-0.43954 -1.4852,-0.29593 -2.9291,-0.73707 -4.327,-1.3116 -1.3974,-0.58017 -2.726,-1.2917 -3.986,-2.1346 -1.2599,-0.84288 -2.4242,-1.7976 -3.498,-2.8703 -1.0686,-1.0666 -2.0256,-2.2321 -2.8657,-3.4904 -0.84576,-1.2588 -1.5534,-2.5915 -2.1353,-3.9875 -0.57573,-1.4012 -1.0163,-2.8421 -1.31,-4.3274 -0.29362,-1.4853 -0.44275,-2.9866 -0.4417,-4.5033 5.5e-4,-1.5111 0.14361,-3.0154 0.43954,-4.5006 0.29594,-1.4852 0.73658,-2.9234 1.3172,-4.3265 0.57449,-1.3979 1.286,-2.7265 2.1289,-3.9865 0.84289,-1.2599 1.7976,-2.4242 2.8698,-3.4924 1.0671,-1.0743 2.2326,-2.0313 3.4909,-2.8714 1.264,-0.83958 2.5915,-1.5534 3.9927,-2.1291 1.396,-0.58191 2.8364,-1.0168 4.3222,-1.3161 1.4853,-0.29363 2.9865,-0.44275 4.5033,-0.44171 1.5111,5.5e-4 3.0149,0.14929 4.5001,0.44523 1.4852,0.29593 2.9239,0.73089 4.327,1.3116 1.3974,0.58016 2.726,1.2917 3.9865,2.1289 1.2599,0.84289 2.4242,1.7976 3.4924,2.8698 1.0738,1.0727 2.0308,2.2383 2.8708,3.4966 0.84008,1.2583 1.5539,2.5858 2.1296,3.987 0.5814,1.4017 1.0163,2.8421 1.3156,4.3279 0.29362,1.4853 0.44275,2.9865 0.4422,4.4976 z" stroke-width="2" id="path24" /></g></g></g><path id="Selection" d="m 564.29,211.33959 c 0,0 5.9047,-2.7929 7.047,-0.73528 1.0613,1.9116 -4.0654,5.1535 -4.0654,5.1535 l -357.02,192.97 5.9708,7.789 15.749,20.119 c -5.83919,5.69876 -14.999,6.0422 -22.21,1.5557 -2.8006,-1.7431 -4.812,-4.068 -7.173,-6.325 -1.6383,-1.568 -6.0488,-5.6651 -6.8224,-7.4474 7.8739,-4.6327 12.285,-13.253 9.0557,-22.099 -1.3596,-3.725 -5.7261,-7.666 -5.7261,-7.666 z m -429.63,137.01 12.331,-3.3353 c 4.0233,-1.0307 12.545,-3.4493 16.303,-3.7948 l 3.4143,-0.27244 c 4.795,-0.37394 14.443,1.0564 19.603,1.6279 l 28.317,3.1557 23.705,2.7826 c 0.57647,0.0823 1.2783,0.12035 1.6067,0.6784 0.4876,0.82752 -0.0615,3.0033 -0.32494,3.8936 -0.64837,2.1894 -1.9283,4.6429 -3.587,6.2345 l -4.273,3.5132 -4.4712,1.3714 c -3.0453,0.73036 -4.6191,0.7448 -7.667,0.80273 l -1.1381,0.0908 -6.8756,-0.0385 -10.295,0.17748 -5.4496,-0.10909 c -1.6188,-1.6465 -5.9986,-4.0103 -8.158,-5.2944 -4.4304,-2.6363 -10.817,-6.1283 -15.775,-7.42 -3.7202,-0.96579 -6.469,-0.89178 -10.123,-1.2444 l -12.419,-1.3091 -10.389,-1.0008 c -1.1962,-0.13257 -3.3107,-0.18331 -4.3364,-0.50903 z m -126.97,83.95 c 2.1351,-0.76035 6.729,-3.3814 8.7912,-4.6204 6.9373,-4.1732 14.088,-9.7829 19.643,-15.653 l 6.5716,-7.2906 16.86,-18.213 11.582,-12.633 7.3557,-8.2225 2.6388,-2.79 c 2.974,-3.3924 5.5256,-6.697 9.5888,-8.9394 3.3285,-1.836 6.0959,-2.3191 9.8145,-2.5816 l 17.01,1.4216 34.619,3.183 12.859,1.1543 c 2.76103,0.14571 5.14229,0.69291 7.7008,1.67983 l 5.0124,1.7918 8.7239,5.2094 17.459,10.552 6.0327,3.7938 3.059,2.4265 c -1.72579,0.91351 -3.50433,1.6072 -5.2331,2.57801 l -9.0605,4.8329 c -0.93171,0.48474 -3.2381,1.8203 -4.1379,1.9548 -0.89691,0.13431 -4.0267,-0.75321 -5.2312,-0.95351 l -6.6449,-0.72954 -11.913,-5.6959 c -2.2079,-1.0323 -3.9703,-2.2569 -6.4683,-2.0917 l -2.2762,0.18162 -3.7217,0.012 -4.2679,0.34057 -2.866,-0.0308 c -4.8693,0.0552 -9.8594,0.33782 -14.478,-1.102 -3.7773,-1.1775 -5.9947,-6.1576 -10.241,-5.9823 2.2058,3.7601 4.0176,7.2007 7.2688,9.5336 1.9025,1.3651 1.5136,1.228 6.6619,2.2536 5.0466,1.0081 11.234,0.92769 16.365,0.52683 l 3.4362,-6.1e-4 3.4143,-0.27244 c 0.75207,-0.0487 1.5515,-0.14942 2.2931,0.0279 1.159,0.27516 6.6992,3.0025 7.7467,3.7426 l -11.534,2.5592 -27.413,8.073 -10.398,2.4458 c -0.98227,0.21232 -3.2444,0.81752 -4.1228,0.32899 -0.59713,-0.37418 -1.7563,-2.4649 -2.0878,-3.131 l -4.1922,-6.3633 c -3.3442,-5.5047 -5.5369,-5.8513 -10.862,-9.5363 l 4.9977,8.0091 3.2674,5.7246 2.4936,6.0714 -12.897,-0.1366 -5.0288,0.1733 -2.3321,4.43 17.558,1.127 6.8763,0.0469 4.8151,-0.65784 12.947,-2.8002 24.885,-7.458 c 4.7566,-1.3486 10.878,-3.0256 15.764,-3.3812 l 8.8203,-0.70382 c 0,0 3.7339,-0.19079 5.471,0.37571 2.4338,0.79378 4.3937,1.3994 6.4919,4.0907 3.0274,3.8826 3.2386,9.6686 0.46979,13.76 -1.2798,1.8863 -3.2827,3.3287 -5.1532,4.6009 -7.7861,5.2955 -16.796,7.9896 -25.788,10.471 l -12.049,3.2758 -9.8102,2.6354 c -3.5335,1.082 -7.9701,3.1685 -8.8699,3.6434 -3.31,1.7462 -6.0944,3.724 -8.9562,6.1271 -2.6311,2.2108 -5.1086,4.7284 -7.4334,7.2568 l -3.0316,3.531 c -5.3894,5.8995 -10.937,11.718 -17.406,16.48 -8.9831,6.6109 -17.478,9.6487 -28.23,12.145 -6.9543,1.6152 -14.036,2.3655 -20.801,4.832 -4.3674,1.594 -7.5981,3.1857 -11.578,5.5781 -1.0488,0.63095 -3.4513,2.3731 -4.6588,1.851 -0.81883,-0.35366 -2.0597,-2.6402 -2.6311,-3.4782 l -6.4209,-11.173 c -8.1216,-15.259 -14.357,-33.156 -17.137,-50.22 z m 209.86,-21.876 12.6,-7.1104 c 0.90039,-0.48228 3.9377,-2.449 4.654,-2.5147 0.92972,-0.0828 1.7846,0.9321 2.4345,1.4987 l 5.2789,4.709 c 0.7843,0.7782 1.5504,1.2956 1.0304,2.4829 -0.74689,1.7127 -2.9614,3.229 -4.5496,4.1309 -4.113,2.3347 -9.8183,2.4992 -14.264,0.99283 -2.8233,-0.95754 -7.1842,-4.18923 -7.1842,-4.18923 z M 0,429.20759 l 0.28452,-0.0228 -0.26171,0.30592 z m 0.58106,3.6588 0.28453,-0.0228 -0.26172,0.30589 z m 172.78,1.3189 11.415,-4.046 7.7387,-3.4677 2.2659,5.8045 2.4242,5.7092 2.7194,6.991 3.3389,8.284 c -3.67985,1.55561 -5.7798,2.8297 -10.425,2.1144 0,0 -3.98,-0.59033 -5.5771,-1.6926 -4.2838,-2.9564 -9.5168,-12.351 -9.5168,-12.351 z" fill="#026678" stroke="none" stroke-width="0.28477" style="stroke-opacity:1" /></svg>