<?xml version="1.0" encoding="UTF-8" standalone="no"?>
<svg
   version="1.1"
   id="experimaestro"
   viewBox="-111 -404.5 963.35986 963.36"
   sodipodi:docname="icon.svg"
   inkscape:version="1.4.4 (dcaf3e7, 2026-05-05)"
   width="963.35986"
   height="963.35999"
   xmlns:inkscape="http://www.inkscape.org/namespaces/inkscape"
   xmlns:sodipodi="http://sodipodi.sourceforge.net/DTD/sodipodi-0.dtd"
   xmlns:xlink="http://www.w3.org/1999/xlink"
   xmlns="http://www.w3.org/2000/svg"
   xmlns:svg="http://www.w3.org/2000/svg">
  <defs
     id="defs51">
    <linearGradient
       id="linearGradient53"
       inkscape:collect="always">
      <stop
         style="stop-color:#1f9aa6;stop-opacity:1;"
         offset="0"
         id="stop54" />
      <stop
         style="stop-color:#1f9aa6;stop-opacity:0.40217391;"
         offset="1"
         id="stop55" />
    </linearGradient>
    <linearGradient
       id="linearGradient52"
       inkscape:collect="always">
      <stop
         style="stop-color:#2133b9;stop-opacity:1;"
         offset="0"
         id="stop52" />
      <stop
         style="stop-color:#21a0b9;stop-opacity:0.99456519;"
         offset="1"
         id="stop53" />
    </linearGradient>
    <radialGradient
       inkscape:collect="always"
       xlink:href="#linearGradient52"
       id="radialGradient53-0"
       cx="1270.3"
       cy="-2.2"
       fx="1270.3"
       fy="-2.2"
       r="21"
       gradientUnits="userSpaceOnUse" />
    <radialGradient
       inkscape:collect="always"
       xlink:href="#linearGradient53"
       id="radialGradient55-2"
       cx="1098.2"
       cy="-100.9"
       fx="1098.2"
       fy="-100.9"
       r="21"
       gradientUnits="userSpaceOnUse" />
    <radialGradient
       inkscape:collect="always"
       xlink:href="#linearGradient53"
       id="radialGradient55-21"
       cx="1098.2"
       cy="-100.9"
       fx="1098.2"
       fy="-100.9"
       r="21"
       gradientUnits="userSpaceOnUse" />
    <mask
       maskUnits="userSpaceOnUse"
       maskContentUnits="userSpaceOnUse"
       x="400"
       y="-400"
       width="1100"
       height="1000"
       id="mask-powermask-path-effect14">
      <path
         id="mask-powermask-path-effect14_box"
         style="fill:#ffffff;fill-opacity:1"
         d="m 479,-266.60001 h 955.8 V 368.72537 H 479 Z" />
      <g
         id="g14"
         transform="translate(584.83556,138.89999)"
         style="">
        <rect
           style="fill:#ffffff;fill-opacity:1;fill-rule:nonzero;stroke:none;stroke-width:0;stroke-linecap:round;stroke-linejoin:round;stroke-dasharray:none"
           id="rect12"
           width="967.45154"
           height="733.61249"
           x="-112.52836"
           y="-406.02835"
           rx="90"
           ry="90" />
        <path
           style="display:inline;fill:#000000;fill-opacity:1;stroke-width:0.75"
           d="m 320.79483,208.0154 0.83541,-23.39129 894.71686,-160.397417 14.2019,3.341613 8.354,13.366452 -1.6709,10.860241 -10.8602,11.695646 -888.0336,212.192415 -14.20185,-25.06209 z"
           id="path14"
           inkscape:label="white mask"
           transform="matrix(0.72406281,0,0,0.71180596,-95.32571,-5.05287)" />
      </g>
    </mask>
  </defs>
  <sodipodi:namedview
     id="namedview51"
     pagecolor="#ffffff"
     bordercolor="#000000"
     borderopacity="0.25"
     inkscape:showpageshadow="2"
     inkscape:pageopacity="0.0"
     inkscape:pagecheckerboard="0"
     inkscape:deskcolor="#d1d1d1"
     inkscape:zoom="0.65429636"
     inkscape:cx="450.10185"
     inkscape:cy="408.83614"
     inkscape:window-width="1504"
     inkscape:window-height="1634"
     inkscape:window-x="0"
     inkscape:window-y="30"
     inkscape:window-maximized="0"
     inkscape:current-layer="experimaestro" />
  <g
     id="graph"
     transform="translate(-584.83556,-138.89999)"
     mask="url(#mask-powermask-path-effect14)">
    <path
       d="M 1270.3,-2.2 970.5,88.3"
       fill="none"
       stroke="#1f9aa6"
       stroke-width="15"
       stroke-linecap="round"
       stroke-linejoin="round"
       id="path5"
       style="fill:none;fill-opacity:1;stroke:#003380;stroke-width:15;stroke-linecap:round;stroke-linejoin:round;stroke-opacity:1"
       inkscape:original-d="M 1270.3,-2.2 970.5,88.3" />
    <path
       d="m 1270.3,-2.2 142.5,-49"
       fill="none"
       stroke="#1f9aa6"
       stroke-width="15"
       stroke-linecap="round"
       stroke-linejoin="round"
       id="path6"
       style="fill:none;fill-opacity:1;stroke:#a6a6db;stroke-width:15;stroke-linecap:round;stroke-linejoin:round;stroke-opacity:1"
       inkscape:original-d="m 1270.3,-2.2 142.5,-49" />
    <path
       d="M 1270.3,-2.2 1248,-244.6"
       fill="none"
       stroke="#1f9aa6"
       stroke-width="15"
       stroke-linecap="round"
       stroke-linejoin="round"
       id="path7"
       style="fill:none;fill-opacity:1;stroke:#a6a6db;stroke-width:15;stroke-linecap:round;stroke-linejoin:round;stroke-opacity:1"
       inkscape:original-d="M 1270.3,-2.2 1248,-244.6" />
    <path
       d="m 1270.3,-2.2 c -4.063,14.534574 -11.4068,44.385662 -27.8618,108.45839 -16.0286,60.37469 -22.9509,81.16743 -30.2382,100.04161 -20,51.8 -51.5,85.3 -61.8,102.4"
       fill="none"
       stroke="#1f9aa6"
       stroke-width="15"
       stroke-linecap="round"
       stroke-linejoin="round"
       id="path8"
       style="fill:none;fill-opacity:1;stroke:#003380;stroke-width:15;stroke-linecap:round;stroke-linejoin:round;stroke-opacity:1"
       sodipodi:nodetypes="ccsc"
       inkscape:original-d="m 1270.3,-2.2 c -4.063,14.534574 -11.4068,44.385662 -27.8618,108.45839 -16.0286,60.37469 -22.9509,81.16743 -30.2382,100.04161 -20,51.8 -51.5,85.3 -61.8,102.4" />
    <path
       d="m 712.5,106.9 258,-18.6"
       fill="none"
       stroke="#1f9aa6"
       stroke-width="15"
       stroke-linecap="round"
       stroke-linejoin="round"
       id="path9"
       style="fill:none;fill-opacity:1;stroke:#003380;stroke-width:15;stroke-linecap:round;stroke-linejoin:round;stroke-opacity:1"
       inkscape:original-d="m 712.5,106.9 258,-18.6" />
    <path
       d="m 712.5,106.9 82,-178.7"
       fill="none"
       stroke="#1f9aa6"
       stroke-width="15"
       stroke-linecap="round"
       stroke-linejoin="round"
       id="path10"
       style="fill:none;fill-opacity:1;stroke:#003380;stroke-width:15;stroke-linecap:round;stroke-linejoin:round;stroke-opacity:1"
       inkscape:original-d="m 712.5,106.9 82,-178.7" />
    <path
       d="M 712.5,106.9 C 701,101.6 707.84345,48.004032 645.12,39.399908 601.33055,33.393066 566.7,83.4 551.3,85.1"
       fill="none"
       stroke="#1f9aa6"
       stroke-width="15"
       stroke-linecap="round"
       stroke-linejoin="round"
       id="path12"
       sodipodi:nodetypes="csc"
       style="fill:none;fill-opacity:1;stroke:#003380;stroke-width:15;stroke-linecap:round;stroke-linejoin:round;stroke-opacity:1"
       inkscape:original-d="M 712.5,106.9 C 701,101.6 707.84345,48.004032 645.12,39.399908 601.33055,33.393066 566.7,83.4 551.3,85.1" />
    <path
       d="m 712.5,106.9 c 12.10292,16.59567 43.89362,61.68319 91.96449,128.62255 38.0835,52.28922 55.0365,74.71602 66.43551,88.27745 36.21322,46.19558 159.1859,34.18612 278.639,-11.7683"
       fill="none"
       stroke="#1f9aa6"
       stroke-width="15"
       stroke-linecap="round"
       stroke-linejoin="round"
       id="path13"
       style="fill:none;fill-opacity:1;stroke:#003380;stroke-width:15;stroke-linecap:round;stroke-linejoin:round;stroke-opacity:1"
       sodipodi:nodetypes="cccc"
       inkscape:original-d="m 712.5,106.9 c 12.10292,16.59567 43.89362,61.68319 91.96449,128.62255 38.0835,52.28922 55.0365,74.71602 66.43551,88.27745 36.21322,46.19558 159.1859,34.18612 278.639,-11.7683" />
    <path
       d="m 1098.2,-100.9 c -9.4,14.1 -42.5,64 -56.2,84.7 -13.7,20.7 -13.8,22 -25.7,39.4 -11.9,17.4 -38.2,54.3 -45.8,65.1"
       fill="none"
       stroke="#1f9aa6"
       stroke-width="15"
       stroke-linecap="round"
       stroke-linejoin="round"
       id="path17"
       style="fill:none;fill-opacity:1;stroke:#dba6b6;stroke-width:15;stroke-linecap:round;stroke-linejoin:round;stroke-opacity:1"
       inkscape:original-d="m 1098.2,-100.9 c -9.4,14.1 -42.5,64 -56.2,84.7 -13.7,20.7 -13.8,22 -25.7,39.4 -11.9,17.4 -38.2,54.3 -45.8,65.1" />
    <path
       d="M 1150.4,308.7 1032.9842,165.91426 970.5,88.3"
       fill="none"
       stroke="#1f9aa6"
       stroke-width="15"
       stroke-linecap="round"
       stroke-linejoin="round"
       id="path18"
       style="fill:none;fill-opacity:1;stroke:#003380;stroke-width:15;stroke-linecap:round;stroke-linejoin:round;stroke-opacity:1"
       sodipodi:nodetypes="ccc"
       inkscape:original-d="M 1150.4,308.7 1032.9842,165.91426 970.5,88.3" />
    <path
       d="m 1421.7,-55.079447 c -13.6,1 -12.5751,-107.230833 -78.96,-154.260413 C 1288.0945,-248.05279 1261,-247.7 1248,-244.6"
       fill="none"
       stroke="#1f9aa6"
       stroke-width="15"
       stroke-linecap="round"
       stroke-linejoin="round"
       id="path20"
       sodipodi:nodetypes="csc"
       style="fill:none;fill-opacity:1;stroke:#a6a6db;stroke-width:15;stroke-linecap:round;stroke-linejoin:round;stroke-opacity:1"
       inkscape:original-d="m 1421.7,-55.079447 c -13.6,1 -12.5751,-107.230833 -78.96,-154.260413 C 1288.0945,-248.05279 1261,-247.7 1248,-244.6" />
    <path
       d="M 970.5,88.3 C 960.8,79 926.6,47.1 912.1,32.7 897.6,18.3 893.1,12 883.4,1.9 c -9.7,-10.1 -14.9,-17.4 -29.7,-29.7 -14.8,-12.3 -49.3,-36.7 -59.2,-44"
       fill="none"
       stroke="#1f9aa6"
       stroke-width="15"
       stroke-linecap="round"
       stroke-linejoin="round"
       id="path21"
       style="fill:none;fill-opacity:1;stroke:#003380;stroke-width:15;stroke-linecap:round;stroke-linejoin:round;stroke-opacity:1"
       inkscape:original-d="M 970.5,88.3 C 960.8,79 926.6,47.1 912.1,32.7 897.6,18.3 893.1,12 883.4,1.9 c -9.7,-10.1 -14.9,-17.4 -29.7,-29.7 -14.8,-12.3 -49.3,-36.7 -59.2,-44" />
    <path
       d="m 794.5,-71.8 c -11.9,-1.6 -46.6,-12.6 -71.3,-9.6 -24.6,3 -57.4,17.9 -76.6,27.6 -19.2,9.7 -25.4,17.4 -38.5,30.8 -13.1,13.4 -30.7,31.4 -40.2,49.4 -9.5,18 -13.8,48.9 -16.6,58.7"
       fill="none"
       stroke="#1f9aa6"
       stroke-width="15"
       stroke-linecap="round"
       stroke-linejoin="round"
       id="path22"
       style="fill:none;fill-opacity:1;stroke:#003380;stroke-width:15;stroke-linecap:round;stroke-linejoin:round;stroke-opacity:1"
       inkscape:original-d="m 794.5,-71.8 c -11.9,-1.6 -46.6,-12.6 -71.3,-9.6 -24.6,3 -57.4,17.9 -76.6,27.6 -19.2,9.7 -25.4,17.4 -38.5,30.8 -13.1,13.4 -30.7,31.4 -40.2,49.4 -9.5,18 -13.8,48.9 -16.6,58.7" />
    <path
       d="M 501,172.6 551.3,85.1"
       fill="none"
       stroke="#1f9aa6"
       stroke-width="15"
       stroke-linecap="round"
       stroke-linejoin="round"
       id="path23"
       style="fill:none;fill-opacity:1;stroke:#003380;stroke-opacity:1"
       inkscape:original-d="M 501,172.6 551.3,85.1" />
    <path
       fill="#1f9aa6"
       id="circle24"
       style="fill:#a6a6db;fill-opacity:1;stroke:none"
       sodipodi:type="arc"
       sodipodi:cx="1270.3"
       sodipodi:cy="-2.2"
       sodipodi:rx="21"
       sodipodi:ry="21"
       d="m 1291.3,-2.2 a 21,21 0 0 1 -21,21 21,21 0 0 1 -21,-21 21,21 0 0 1 21,-21 21,21 0 0 1 21,21 z" />
    <path
       fill="#1f9aa6"
       id="circle25"
       style="fill:#003380;fill-opacity:1"
       sodipodi:type="arc"
       sodipodi:cx="712.5"
       sodipodi:cy="106.9"
       sodipodi:rx="21"
       sodipodi:ry="21"
       d="m 733.5,106.9 a 21,21 0 0 1 -21,21 21,21 0 0 1 -21,-21 21,21 0 0 1 21,-20.999998 21,21 0 0 1 21,20.999998 z" />
    <path
       id="circle27"
       style="fill:#dba6b6;fill-opacity:1;stroke:none"
       d="m 1119.2,-100.9 a 21,21 0 0 1 -21,20.999998 21,21 0 0 1 -21,-20.999998 21,21 0 0 1 21,-21 21,21 0 0 1 21,21 z"
       inkscape:original-d="m 1119.2,-100.9 a 21,21 0 0 1 -21,20.999998 21,21 0 0 1 -21,-20.999998 21,21 0 0 1 21,-21 21,21 0 0 1 21,21 z" />
    <path
       fill="#1f9aa6"
       id="circle28"
       style="fill:#003380;fill-opacity:1"
       sodipodi:type="arc"
       sodipodi:cx="1150.4"
       sodipodi:cy="308.70001"
       sodipodi:rx="21"
       sodipodi:ry="21"
       d="m 1171.4,308.70001 a 21,21 0 0 1 -21,21 21,21 0 0 1 -21,-21 21,21 0 0 1 21,-21 21,21 0 0 1 21,21 z" />
    <path
       fill="#1f9aa6"
       id="circle30"
       style="fill:#003380;fill-opacity:1"
       sodipodi:type="arc"
       sodipodi:cx="970.5"
       sodipodi:cy="88.300003"
       sodipodi:rx="21"
       sodipodi:ry="21"
       d="m 991.5,88.300003 a 21,21 0 0 1 -21,20.999997 21,21 0 0 1 -21,-20.999997 21,21 0 0 1 21,-21 21,21 0 0 1 21,21 z" />
    <path
       fill="#1f9aa6"
       id="circle31"
       style="fill:#a6a6db;fill-opacity:1"
       sodipodi:type="arc"
       sodipodi:cx="1412.8"
       sodipodi:cy="-51.200001"
       sodipodi:rx="21"
       sodipodi:ry="21"
       d="m 1433.8,-51.200001 a 21,21 0 0 1 -21,21 21,21 0 0 1 -21,-21 21,21 0 0 1 21,-21 21,21 0 0 1 21,21 z" />
    <path
       fill="#1f9aa6"
       id="circle32"
       style="fill:#003380;fill-opacity:1"
       sodipodi:type="arc"
       sodipodi:cx="794.5"
       sodipodi:cy="-71.800003"
       sodipodi:rx="21"
       sodipodi:ry="21"
       d="m 815.5,-71.800003 a 21,21 0 0 1 -21,21 21,21 0 0 1 -21,-21 21,21 0 0 1 21,-21 21,21 0 0 1 21,21 z" />
    <path
       fill="#1f9aa6"
       id="circle33"
       style="fill:#003380;fill-opacity:1"
       sodipodi:type="arc"
       sodipodi:cx="501"
       sodipodi:cy="172.60001"
       sodipodi:rx="21"
       sodipodi:ry="21"
       d="m 522,172.60001 a 21,21 0 0 1 -21,21 21,21 0 0 1 -21,-21 21,21 0 0 1 21,-21 21,21 0 0 1 21,21 z" />
    <path
       fill="#1f9aa6"
       id="circle34"
       style="fill:#003380;fill-opacity:1"
       sodipodi:type="arc"
       sodipodi:cx="551.29999"
       sodipodi:cy="85.099998"
       sodipodi:rx="21"
       sodipodi:ry="21"
       d="m 572.29999,85.099998 a 21,21 0 0 1 -21,21.000002 21,21 0 0 1 -21,-21.000002 21,21 0 0 1 21,-21 21,21 0 0 1 21,21 z" />
    <path
       fill="#1f9aa6"
       id="circle35"
       style="fill:#a6a6db;fill-opacity:1"
       sodipodi:type="arc"
       sodipodi:cx="1248"
       sodipodi:cy="-244.60001"
       sodipodi:rx="21"
       sodipodi:ry="21"
       d="m 1269,-244.60001 a 21,21 0 0 1 -21,21 21,21 0 0 1 -21,-21 21,21 0 0 1 21,-21 21,21 0 0 1 21,21 z" />
    <path
       fill="#1f9aa6"
       id="circle36"
       style="fill:#003380;fill-opacity:1"
       sodipodi:type="arc"
       sodipodi:cx="646.54004"
       sodipodi:cy="40.819908"
       sodipodi:rx="21"
       sodipodi:ry="21"
       d="m 667.54004,40.819908 a 21,21 0 0 1 -21,21 21,21 0 0 1 -21,-21 21,21 0 0 1 21,-21 21,21 0 0 1 21,21 z" />
    <path
       fill="#1f9aa6"
       id="circle37"
       style="fill:#003380;fill-opacity:1"
       sodipodi:type="arc"
       sodipodi:cx="1241.2388"
       sodipodi:cy="116.1268"
       sodipodi:rx="21"
       sodipodi:ry="21"
       d="m 1262.2388,116.1268 a 21,21 0 0 1 -21,21 21,21 0 0 1 -21,-21 21,21 0 0 1 21,-20.999999 21,21 0 0 1 21,20.999999 z" />
    <path
       fill="#1f9aa6"
       id="circle38"
       style="fill:#003380;fill-opacity:1"
       sodipodi:type="arc"
       sodipodi:cx="904.52393"
       sodipodi:cy="346.72537"
       sodipodi:rx="21"
       sodipodi:ry="21"
       d="m 925.52393,346.72537 a 21,21 0 0 1 -21,21 21,21 0 0 1 -21,-21 21,21 0 0 1 21,-21 21,21 0 0 1 21,21 z" />
    <path
       fill="#1f9aa6"
       id="circle24-7"
       style="fill:#dba6b6;fill-opacity:1;stroke:none"
       sodipodi:type="arc"
       sodipodi:cx="1039.2042"
       sodipodi:cy="-11.783143"
       sodipodi:rx="21"
       sodipodi:ry="21"
       d="m 1060.2042,-11.783143 a 21,21 0 0 1 -21,21 21,21 0 0 1 -21,-21 21,21 0 0 1 21,-21 21,21 0 0 1 21,21 z" />
    <path
       fill="#1f9aa6"
       id="circle50"
       style="fill:#003380;fill-opacity:1"
       sodipodi:type="arc"
       sodipodi:cx="646.59998"
       sodipodi:cy="-53.799999"
       sodipodi:rx="21"
       sodipodi:ry="21"
       d="m 667.59998,-53.799999 a 21,21 0 0 1 -21,21 21,21 0 0 1 -21,-21 21,21 0 0 1 21,-21 21,21 0 0 1 21,21 z" />
    <path
       fill="#1f9aa6"
       id="circle51"
       style="fill:#003380;fill-opacity:1"
       sodipodi:type="arc"
       sodipodi:cx="883.40002"
       sodipodi:cy="1.9"
       sodipodi:rx="21"
       sodipodi:ry="21"
       d="m 904.40002,1.9 a 21,21 0 0 1 -21,21 21,21 0 0 1 -21,-21 21,21 0 0 1 21,-21 21,21 0 0 1 21,21 z" />
  </g>
  <text
     xml:space="preserve"
     style="font-size:130.667px;text-align:center;writing-mode:lr-tb;direction:ltr;text-anchor:middle;fill:#003380;fill-opacity:1;stroke-width:1.00157"
     x="368.97308"
     y="512.15582"
     id="text1"><tspan
       sodipodi:role="line"
       id="tspan1"
       x="368.97308"
       y="512.15582"
       style="font-style:normal;font-variant:normal;font-weight:bold;font-stretch:normal;font-size:130.667px;font-family:'Helvetica Neue';-inkscape-font-specification:'Helvetica Neue Bold';fill:#003380;fill-opacity:1">Experimaestro</tspan></text>
  <g
     id="g45"
     transform="matrix(1.2497249,0,0,1.2285697,-95.32571,-285.93394)">
    <g
       transform="matrix(0.57937776,0,0,0.57937776,0,228.62445)"
       id="g1"
       style="display:inline"
       inkscape:label="Hand">
      <defs
         id="defs26" />
      <path
         style="display:inline;fill:#003380;stroke-width:1.38796"
         d="m 51.024928,528.0275 c -4.898645,-2.65797 -7.998211,-8.74043 -7.998211,-15.69534 0,-10.21835 8.575081,-16.86507 31.22907,-24.20632 19.484475,-6.31413 26.894513,-7.14425 61.070183,-6.84144 48.00366,0.42532 66.3132,-3.26251 88.86222,-17.89827 5.32555,-3.45663 23.42363,-18.36017 40.21793,-33.11896 39.60801,-34.80743 50.12553,-41.53374 89.31552,-57.12029 9.6565,-3.84056 18.07397,-7.47291 18.70547,-8.07189 1.96095,-1.85999 -7.22336,-10.86147 -14.77571,-14.48157 -9.64909,-4.62515 -17.8019,-5.57211 -30.89103,-3.58801 -13.85788,2.10062 -24.60945,5.96715 -54.0265,19.42927 -37.8664,17.32879 -48.93372,19.68075 -62.62057,13.3078 -16.48273,-7.67478 -21.65164,-27.85587 -10.78397,-42.10413 7.11544,-9.32881 6.5914,-9.18734 106.71555,-28.81109 41.22237,-8.07933 76.51122,-15.03002 78.41966,-15.44594 l 3.4699,-0.75623 -3.18365,-2.5835 c -1.75102,-1.42094 -11.43203,-5.18083 -21.51336,-8.35533 -10.08134,-3.17451 -32.158,-10.67256 -49.05923,-16.66232 -35.27111,-12.50004 -47.68269,-15.91779 -64.91714,-17.8761 -17.67692,-2.00859 -30.55689,-0.0315 -44.53716,6.83636 -14.81921,7.28005 -24.82041,16.59653 -47.47736,44.2269 -53.62612,65.39757 -78.12035,87.86618 -119.042537,109.19799 -10.637082,5.54488 -13.320282,6.39594 -18.370427,5.82671 C 8.6106558,411.97081 1.4855868,403.57541 3.3229396,393.78149 4.7633441,386.10347 8.6939467,382.46634 23.94143,374.70244 c 17.555917,-8.93932 33.858539,-19.63689 44.585743,-29.25655 4.483036,-4.0202 24.091371,-25.77251 43.574077,-48.33848 19.48271,-22.56597 39.54886,-45.30004 44.59145,-50.52015 22.01544,-22.79045 48.31202,-34.22959 78.68787,-34.22959 27.16457,0 34.53995,1.73822 105.36327,24.83186 21.37457,6.96969 43.8595,13.94242 49.96651,15.49494 29.41709,7.47845 34.53404,10.82547 36.24277,23.7065 l 0.92978,7.00904 6.39699,-0.95844 c 3.51833,-0.52714 30.13107,-5.60205 59.1394,-11.27756 29.00834,-5.67552 90.06104,-17.48648 135.67268,-26.24657 45.61162,-8.76008 98.07646,-19.03132 116.58852,-22.82498 40.39929,-8.27897 348.57631,-68.23768 520.83171,-101.33266 67.9406,-13.05324 171.6211,-33.029489 230.4012,-44.391658 58.78,-11.362169 110.7688,-21.352205 115.5305,-22.200079 9.6994,-1.727108 14.2436,-0.410736 14.2436,4.126199 0,4.86472 17.7008,0.454194 -185.9864,46.342598 -66.0322,14.87629 -216.244,48.9117 -333.8041,75.63425 -117.56009,26.72254 -228.111,51.77606 -245.66867,55.67444 -17.55768,3.89841 -114.99237,26.08202 -216.52155,49.29692 -101.52917,23.21492 -198.20465,45.27328 -214.83438,49.01861 -16.62975,3.74532 -30.54099,7.11477 -30.91388,7.48764 -0.37288,0.37289 1.8542,5.95517 4.94909,12.40507 7.0658,14.72553 8.00971,20.13844 4.92179,28.22406 -3.16597,8.28999 -7.27872,10.91297 -28.18834,17.97765 -31.60029,10.67671 -53.37782,21.72555 -71.12629,36.08598 -4.96195,4.01475 -17.76587,15.28452 -28.45315,25.04392 -33.72548,30.7974 -49.59677,40.90881 -76.33772,48.63378 -15.78233,4.55924 -34.93571,6.04762 -66.79548,5.19059 -29.22072,-0.78604 -44.285319,1.5923 -62.672924,9.89452 -11.874407,5.36145 -18.19528,6.09792 -24.230568,2.82321 z"
         id="path26"
         transform="scale(0.74999971)" />
    </g>
  </g>
</svg>
