<?xml version="1.0" encoding="UTF-8" standalone="no"?>
<svg
   version="1.1"
   id="experimaestro"
   viewBox="-111 -404.5 1176.4295 874.77924"
   sodipodi:docname="experimaestro_logo.svg"
   inkscape:version="1.4.4 (dcaf3e7, 2026-05-05)"
   width="1176.4295"
   height="874.77924"
   xmlns:inkscape="http://www.inkscape.org/namespaces/inkscape"
   xmlns:sodipodi="http://sodipodi.sourceforge.net/DTD/sodipodi-0.dtd"
   xmlns:xlink="http://www.w3.org/1999/xlink"
   xmlns="http://www.w3.org/2000/svg"
   xmlns:svg="http://www.w3.org/2000/svg">
  <defs
     id="defs51">
    <linearGradient
       id="linearGradient53"
       inkscape:collect="always">
      <stop
         style="stop-color:#1f9aa6;stop-opacity:1;"
         offset="0"
         id="stop54" />
      <stop
         style="stop-color:#1f9aa6;stop-opacity:0.40217391;"
         offset="1"
         id="stop55" />
    </linearGradient>
    <linearGradient
       id="linearGradient52"
       inkscape:collect="always">
      <stop
         style="stop-color:#2133b9;stop-opacity:1;"
         offset="0"
         id="stop52" />
      <stop
         style="stop-color:#21a0b9;stop-opacity:0.99456519;"
         offset="1"
         id="stop53" />
    </linearGradient>
    <radialGradient
       inkscape:collect="always"
       xlink:href="#linearGradient52"
       id="radialGradient53-0"
       cx="1270.3"
       cy="-2.2"
       fx="1270.3"
       fy="-2.2"
       r="21"
       gradientUnits="userSpaceOnUse" />
    <radialGradient
       inkscape:collect="always"
       xlink:href="#linearGradient53"
       id="radialGradient55-2"
       cx="1098.2"
       cy="-100.9"
       fx="1098.2"
       fy="-100.9"
       r="21"
       gradientUnits="userSpaceOnUse" />
    <radialGradient
       inkscape:collect="always"
       xlink:href="#linearGradient53"
       id="radialGradient55-21"
       cx="1098.2"
       cy="-100.9"
       fx="1098.2"
       fy="-100.9"
       r="21"
       gradientUnits="userSpaceOnUse" />
  </defs>
  <sodipodi:namedview
     id="namedview51"
     pagecolor="#ffffff"
     bordercolor="#000000"
     borderopacity="0.25"
     inkscape:showpageshadow="2"
     inkscape:pageopacity="0.0"
     inkscape:pagecheckerboard="0"
     inkscape:deskcolor="#d1d1d1"
     inkscape:zoom="0.31672455"
     inkscape:cx="484.64826"
     inkscape:cy="52.095741"
     inkscape:window-width="3008"
     inkscape:window-height="1634"
     inkscape:window-x="0"
     inkscape:window-y="30"
     inkscape:window-maximized="0"
     inkscape:current-layer="experimaestro" />
  <rect
     id="background"
     x="-111"
     y="-404.5"
     width="1176.4295"
     height="874.77924"
     rx="90"
     ry="90"
     style="fill:#ffffff;fill-opacity:1" />
  <g
     id="graph"
     transform="translate(-461.76592,-48.899994)">
    <path
       d="m 1270.3,-2.2 -172.1,-98.7"
       fill="none"
       stroke="#1f9aa6"
       stroke-width="15"
       stroke-linecap="round"
       stroke-linejoin="round"
       id="path3" />
    <path
       d="M 1270.3,-2.2 970.5,88.3"
       fill="none"
       stroke="#1f9aa6"
       stroke-width="15"
       stroke-linecap="round"
       stroke-linejoin="round"
       id="path5" />
    <path
       d="m 1270.3,-2.2 142.5,-49"
       fill="none"
       stroke="#1f9aa6"
       stroke-width="15"
       stroke-linecap="round"
       stroke-linejoin="round"
       id="path6" />
    <path
       d="M 1270.3,-2.2 1248,-244.6"
       fill="none"
       stroke="#1f9aa6"
       stroke-width="15"
       stroke-linecap="round"
       stroke-linejoin="round"
       id="path7" />
    <path
       d="m 1270.3,-2.2 c -9.7,34.7 -38.1,156.7 -58.1,208.5 -20,51.8 -51.5,85.3 -61.8,102.4"
       fill="none"
       stroke="#1f9aa6"
       stroke-width="15"
       stroke-linecap="round"
       stroke-linejoin="round"
       id="path8" />
    <path
       d="m 712.5,106.9 258,-18.6"
       fill="none"
       stroke="#1f9aa6"
       stroke-width="15"
       stroke-linecap="round"
       stroke-linejoin="round"
       id="path9" />
    <path
       d="m 712.5,106.9 82,-178.7"
       fill="none"
       stroke="#1f9aa6"
       stroke-width="15"
       stroke-linecap="round"
       stroke-linejoin="round"
       id="path10" />
    <path
       d="M 712.5,106.9 C 701,101.6 707.84345,48.004032 645.12,39.399908 601.33055,33.393066 566.7,83.4 551.3,85.1"
       fill="none"
       stroke="#1f9aa6"
       stroke-width="15"
       stroke-linecap="round"
       stroke-linejoin="round"
       id="path12"
       sodipodi:nodetypes="csc" />
    <path
       d="m 712.5,106.9 c 26.4,36.2 121.5,173 158.4,216.9 36.9,44 41.6,35.8 63.1,46.8 21.5,11 54.7,16.2 65.6,19.4"
       fill="none"
       stroke="#1f9aa6"
       stroke-width="15"
       stroke-linecap="round"
       stroke-linejoin="round"
       id="path13" />
    <path
       d="M 999.6,390 970.5,88.3"
       fill="none"
       stroke="#1f9aa6"
       stroke-width="15"
       stroke-linecap="round"
       stroke-linejoin="round"
       id="path14" />
    <path
       d="m 999.6,390 c 13.4,-3.4 55.5,-7.1 80.6,-20.7 25.1,-13.5 58.5,-50.5 70.2,-60.6"
       fill="none"
       stroke="#1f9aa6"
       stroke-width="15"
       stroke-linecap="round"
       stroke-linejoin="round"
       id="path15" />
    <path
       d="m 1098.2,-100.9 71.8,-81"
       fill="none"
       stroke="#1f9aa6"
       stroke-width="15"
       stroke-linecap="round"
       stroke-linejoin="round"
       id="path16" />
    <path
       d="m 1098.2,-100.9 c -9.4,14.1 -42.5,64 -56.2,84.7 -13.7,20.7 -13.8,22 -25.7,39.4 -11.9,17.4 -38.2,54.3 -45.8,65.1"
       fill="none"
       stroke="#1f9aa6"
       stroke-width="15"
       stroke-linecap="round"
       stroke-linejoin="round"
       id="path17" />
    <path
       d="M 1150.4,308.7 970.5,88.3"
       fill="none"
       stroke="#1f9aa6"
       stroke-width="15"
       stroke-linecap="round"
       stroke-linejoin="round"
       id="path18" />
    <path
       d="m 1421.7,-55.079447 c -13.6,1 -12.5751,-107.230833 -78.96,-154.260413 C 1288.0945,-248.05279 1261,-247.7 1248,-244.6"
       fill="none"
       stroke="#1f9aa6"
       stroke-width="15"
       stroke-linecap="round"
       stroke-linejoin="round"
       id="path20"
       sodipodi:nodetypes="csc" />
    <path
       d="M 970.5,88.3 C 960.8,79 926.6,47.1 912.1,32.7 897.6,18.3 893.1,12 883.4,1.9 c -9.7,-10.1 -14.9,-17.4 -29.7,-29.7 -14.8,-12.3 -49.3,-36.7 -59.2,-44"
       fill="none"
       stroke="#1f9aa6"
       stroke-width="15"
       stroke-linecap="round"
       stroke-linejoin="round"
       id="path21" />
    <path
       d="m 794.5,-71.8 c -11.9,-1.6 -46.6,-12.6 -71.3,-9.6 -24.6,3 -57.4,17.9 -76.6,27.6 -19.2,9.7 -25.4,17.4 -38.5,30.8 -13.1,13.4 -30.7,31.4 -40.2,49.4 -9.5,18 -13.8,48.9 -16.6,58.7"
       fill="none"
       stroke="#1f9aa6"
       stroke-width="15"
       stroke-linecap="round"
       stroke-linejoin="round"
       id="path22" />
    <path
       d="M 501,172.6 551.3,85.1"
       fill="none"
       stroke="#1f9aa6"
       stroke-width="15"
       stroke-linecap="round"
       stroke-linejoin="round"
       id="path23" />
    <path
       d="m 1248,-244.6 -78,62.7"
       fill="none"
       stroke="#1f9aa6"
       stroke-width="15"
       stroke-linecap="round"
       stroke-linejoin="round"
       id="path24" />
    <circle
       cx="1270.3"
       cy="-2.2"
       r="21"
       fill="#1f9aa6"
       id="circle24"
       style="fill:#a61f1f;fill-opacity:1" />
    <circle
       cx="712.5"
       cy="106.9"
       r="21"
       fill="#1f9aa6"
       id="circle25"
       style="fill:#1fa623;fill-opacity:1" />
    <circle
       cx="999.59998"
       cy="390"
       r="21"
       fill="#1f9aa6"
       id="circle26"
       style="fill:#1fa623;fill-opacity:1" />
    <path
       id="circle27"
       style="fill:#42c7dc;fill-opacity:1"
       d="m 1119.2,-100.9 a 21,21 0 0 1 -21,20.999998 21,21 0 0 1 -21,-20.999998 21,21 0 0 1 21,-21 21,21 0 0 1 21,21 z" />
    <circle
       cx="1150.4"
       cy="308.70001"
       r="21"
       fill="#1f9aa6"
       id="circle28"
       style="fill:#a61f1f;fill-opacity:1" />
    <circle
       cx="970.5"
       cy="88.300003"
       r="21"
       fill="#1f9aa6"
       id="circle30"
       style="fill:#1fa623;fill-opacity:1" />
    <circle
       cx="1412.8"
       cy="-51.200001"
       r="21"
       fill="#1f9aa6"
       id="circle31"
       style="fill:#a61f1f;fill-opacity:1" />
    <circle
       cx="794.5"
       cy="-71.800003"
       r="21"
       fill="#1f9aa6"
       id="circle32"
       style="fill:#1fa623;fill-opacity:1" />
    <circle
       cx="501"
       cy="172.60001"
       r="21"
       fill="#1f9aa6"
       id="circle33"
       style="fill:#1fa623;fill-opacity:1" />
    <circle
       cx="551.29999"
       cy="85.099998"
       r="21"
       fill="#1f9aa6"
       id="circle34"
       style="fill:#1fa623;fill-opacity:1" />
    <circle
       cx="1248"
       cy="-244.60001"
       r="21"
       fill="#1f9aa6"
       id="circle35"
       style="fill:#42c7dc;fill-opacity:1" />
    <circle
       cx="646.54004"
       cy="40.819908"
       r="21"
       fill="#1f9aa6"
       id="circle36"
       style="fill:#1fa623;fill-opacity:1" />
    <circle
       cx="1212.2"
       cy="206.3"
       r="21"
       fill="#1f9aa6"
       id="circle37"
       style="fill:#a61f1f;fill-opacity:1" />
    <circle
       cx="870.90002"
       cy="323.79999"
       r="21"
       fill="#1f9aa6"
       id="circle38"
       style="fill:#1fa623;fill-opacity:1" />
    <circle
       cx="1039.2042"
       cy="-11.783143"
       r="21"
       fill="#1f9aa6"
       id="circle24-7"
       style="fill:#f9ee25;fill-opacity:1" />
    <circle
       cx="646.59998"
       cy="-53.799999"
       r="21"
       fill="#1f9aa6"
       id="circle50"
       style="fill:#1fa623;fill-opacity:1" />
    <circle
       cx="883.40002"
       cy="1.9"
       r="21"
       fill="#1f9aa6"
       id="circle51"
       style="fill:#1fa623;fill-opacity:1" />
    <path
       style="display:inline;fill:#ffffff;fill-opacity:1;stroke:none;stroke-width:1.00157;stroke-opacity:1"
       d="M 557.05688,265.29437 1437.1954,55.53162 1426.3829,151.76299 1280.414,155.00674 577.60065,332.33195 Z"
       id="path59"
       sodipodi:nodetypes="cccccc" />
  </g>
  <g
     id="wand"
     transform="translate(-461.76592,-48.899998)">
    <path
       fill="#244aa0"
       d="m 1425.4924,85.074659 c 31.1538,10.952038 -26.4973,22.329361 -39.4184,26.624881 -71.5856,17.03414 -142.6129,38.98972 -213.9819,56.64734 -67.0363,19.65113 -135.1222,35.1466 -202.17845,54.94076 -31.14304,9.04507 -65.52368,15.77095 -94.58566,25.7589 -51.06458,10.39948 -100.98226,28.14329 -151.98877,38.50407 l 13.80915,-59.27947 c 25.46397,7.88747 51.2957,-1.48931 74.89353,-5.89808 72.39569,-17.91485 146.42104,-32.73406 219.1146,-50.73097 29.6836,-7.24926 59.794,-12.47184 89.4333,-19.47729 54.4062,-11.85136 107.784,-25.91636 162.5662,-35.95722 C 1330.061,104.31716 1377.8433,93.946025 1425.4924,85"
       id="path1"
       style="stroke-width:0.725266" />
  </g>
  <g
     id="hand"
     transform="translate(-461.76592,-48.899998)">
    <path
       fill="#244aa0"
       d="m 723.33922,287.55061 c 13.15926,23.04987 -2.60465,47.42965 -28.46377,50.7683 -37.39482,13.13514 -58.00768,47.68106 -90.50809,69.13449 -40.07104,19.59049 -86.01937,11.70112 -127.47928,21.72585 -28.822,-28.31165 23.55514,-45.0788 45.01186,-44.51559 28.8705,-0.27883 60.01143,3.43309 80.45329,-19.52081 24.06941,-22.62695 46.05368,-46.50988 78.21988,-58.25549 32.30653,-18.2784 -37.21565,-11.99196 -48.40249,3.13569 -19.66067,16.73735 -64.24717,20.53968 -59.81619,-17.47027 9.66492,-30.75212 45.33999,-21.45944 68.34506,-31.02815 11.80038,-3.07206 59.2224,-7.48808 33.74405,-19.81482 -30.07363,-4.22098 -58.13849,-27.04871 -89.19587,-12.39344 -26.17134,19.36557 -42.55899,48.12868 -64.18438,73.68871 -20.58728,16.06174 -47.18663,52.61101 -74.54126,38.3002 -23.1124,-32.80276 30.03265,-32.19262 42.21128,-56.1251 15.13248,-11.85443 24.48547,-31.27826 37.82546,-43.99298 21.01236,-34.31407 60.67689,-63.3151 100.96183,-49.05114 36.35755,12.25641 75.1952,19.16844 109.62777,36.13508 l -13.80915,59.27947"
       id="path2"
       style="stroke-width:0.725266" />
  </g>
</svg>
