<?xml version="1.0" encoding="UTF-8" standalone="no"?>
<svg
   version="1.1"
   width="634.49164"
   height="430.80017"
   viewBox="0 0 634.49164 430.80017"
   id="svg44"
   sodipodi:docname="icon.svg"
   inkscape:version="1.4.4 (dcaf3e7, 2026-05-05)"
   xmlns:inkscape="http://www.inkscape.org/namespaces/inkscape"
   xmlns:sodipodi="http://sodipodi.sourceforge.net/DTD/sodipodi-0.dtd"
   xmlns="http://www.w3.org/2000/svg"
   xmlns:svg="http://www.w3.org/2000/svg">
  <sodipodi:namedview
     id="namedview44"
     pagecolor="#ffffff"
     bordercolor="#000000"
     borderopacity="0.25"
     inkscape:showpageshadow="2"
     inkscape:pageopacity="0.0"
     inkscape:pagecheckerboard="0"
     inkscape:deskcolor="#d1d1d1"
     inkscape:zoom="0.84443304"
     inkscape:cx="360.59698"
     inkscape:cy="235.66108"
     inkscape:window-width="1512"
     inkscape:window-height="921"
     inkscape:window-x="0"
     inkscape:window-y="30"
     inkscape:window-maximized="0"
     inkscape:current-layer="svg44" />
  <defs
     id="defs1" />
  <text
     xml:space="preserve"
     style="font-size:64px;text-align:center;writing-mode:lr-tb;direction:ltr;text-anchor:middle;fill:#ffffff;fill-opacity:0.504505;stroke-width:1.00157"
     x="400.26855"
     y="419.21619"
     id="text1"><tspan
       sodipodi:role="line"
       id="tspan1"
       x="400.26855"
       y="419.21619"
       style="font-style:normal;font-variant:normal;font-weight:bold;font-stretch:normal;font-size:64px;font-family:'Helvetica Neue';-inkscape-font-specification:'Helvetica Neue Bold';fill:#ffffff;fill-opacity:0.504505">Experimaestro</tspan></text>
  <g
     id="g44"
     transform="translate(-64.508354)">
    <g
       data-cell-id="0"
       id="g43">
      <g
         data-cell-id="1"
         id="g42">
        <g
           data-cell-id="ap5xLN0G-RL6LaZ94gXw-34"
           id="g2">
          <g
             id="g1">
            <path
               d="M 468.08,76.35 Q 528,110 664.52,72.93"
               fill="none"
               stroke="#ffffff"
               stroke-width="10"
               stroke-miterlimit="10"
               pointer-events="stroke"
               id="path1" />
          </g>
        </g>
        <g
           data-cell-id="ap5xLN0G-RL6LaZ94gXw-30"
           id="g4">
          <g
             id="g3">
            <path
               d="m 392.11,234.93 q 0,0 85.78,-77.85"
               fill="none"
               stroke="#ffffff"
               stroke-width="10"
               stroke-miterlimit="10"
               pointer-events="stroke"
               id="path2" />
          </g>
        </g>
        <g
           data-cell-id="Ep6R-Rm0VZgPJCivWpGw-3"
           id="g6">
          <g
             id="g5">
            <path
               d="M 175.33,246 Q 274,117 344,149.5 q 70,32.5 131.41,3.84"
               fill="none"
               stroke="#ffffff"
               stroke-width="10"
               stroke-miterlimit="10"
               pointer-events="stroke"
               id="path4" />
          </g>
        </g>
        <g
           data-cell-id="Ep6R-Rm0VZgPJCivWpGw-4"
           id="g8">
          <g
             id="g7">
            <path
               d="M 175.16,247 Q 292,151 407.5,269.5 523,388 672.75,227.95"
               fill="none"
               stroke="#ffffff"
               stroke-width="10"
               stroke-miterlimit="10"
               pointer-events="stroke"
               id="path6" />
          </g>
        </g>
        <g
           data-cell-id="Ep6R-Rm0VZgPJCivWpGw-5"
           id="g10">
          <g
             id="g9">
            <path
               d="M 320.54,130.34 Q 354.33,56 440.13,67.07"
               fill="none"
               stroke="#ffffff"
               stroke-width="10"
               stroke-miterlimit="10"
               pointer-events="stroke"
               id="path8" />
          </g>
        </g>
        <g
           data-cell-id="Ep6R-Rm0VZgPJCivWpGw-7"
           id="g12">
          <g
             id="g11">
            <path
               d="M 395.97,245.99 Q 472,251 565.97,197.43"
               fill="none"
               stroke="#66ffb3"
               stroke-width="10"
               stroke-miterlimit="10"
               pointer-events="stroke"
               id="path10" />
          </g>
        </g>
        <g
           data-cell-id="ap5xLN0G-RL6LaZ94gXw-1"
           id="g14">
          <g
             id="g13">
            <circle
               cx="314.32999"
               cy="144"
               fill="#ffffff"
               stroke="#ffffff"
               stroke-width="2"
               pointer-events="all"
               id="ellipse12"
               r="15" />
          </g>
        </g>
        <g
           data-cell-id="ap5xLN0G-RL6LaZ94gXw-3"
           id="g16">
          <g
             transform="translate(0.5,0.5)"
             id="g15">
            <circle
               cx="381"
               cy="245"
               fill="#ffffff"
               stroke="#ffffff"
               pointer-events="all"
               id="ellipse14"
               r="15" />
          </g>
        </g>
        <g
           data-cell-id="ap5xLN0G-RL6LaZ94gXw-5"
           id="g18">
          <g
             transform="translate(0.5,0.5)"
             id="g17">
            <circle
               cx="489"
               cy="147"
               fill="#ffffff"
               stroke="#ffffff"
               pointer-events="all"
               id="ellipse16"
               r="15" />
          </g>
        </g>
        <g
           data-cell-id="ap5xLN0G-RL6LaZ94gXw-6"
           id="g20">
          <g
             transform="translate(0.5,0.5)"
             id="g19">
            <circle
               cx="579"
               cy="190"
               fill="#66ffb3"
               stroke="#66ffb3"
               pointer-events="all"
               id="ellipse18"
               r="15" />
          </g>
        </g>
        <g
           data-cell-id="ap5xLN0G-RL6LaZ94gXw-7"
           id="g22">
          <g
             id="g21">
            <circle
               cx="683"
               cy="217"
               fill="#ffffff"
               stroke="#ffffff"
               stroke-width="2"
               pointer-events="all"
               id="ellipse20"
               r="15" />
          </g>
        </g>
        <g
           data-cell-id="ap5xLN0G-RL6LaZ94gXw-13"
           id="g24">
          <g
             transform="translate(0.5,0.5)"
             id="g23">
            <circle
               cx="176.33"
               cy="244"
               fill="#ffffff"
               stroke="#ffffff"
               pointer-events="all"
               id="ellipse22"
               r="15" />
          </g>
        </g>
        <g
           data-cell-id="ap5xLN0G-RL6LaZ94gXw-16"
           id="g26">
          <g
             id="g25">
            <circle
               cx="455"
               cy="69"
               fill="#ffffff"
               stroke="#ffffff"
               stroke-width="2"
               pointer-events="all"
               id="ellipse24"
               r="15" />
          </g>
        </g>
        <g
           data-cell-id="ap5xLN0G-RL6LaZ94gXw-19"
           id="g29">
          <g
             id="g28">
            <g
               id="g27" />
          </g>
        </g>
        <g
           data-cell-id="ap5xLN0G-RL6LaZ94gXw-22"
           id="g31">
          <g
             id="g30">
            <path
               d="M 469.96,67.92 Q 524,64 575.16,24.21"
               fill="none"
               stroke="#990000"
               stroke-width="10"
               stroke-miterlimit="10"
               pointer-events="stroke"
               id="path29" />
          </g>
        </g>
        <g
           data-cell-id="ap5xLN0G-RL6LaZ94gXw-23"
           id="g33">
          <g
             transform="translate(0.5,0.5)"
             id="g32">
            <circle
               cx="587"
               cy="15"
               fill="#990000"
               stroke="#990000"
               pointer-events="all"
               id="ellipse31"
               r="15" />
          </g>
        </g>
        <g
           data-cell-id="ap5xLN0G-RL6LaZ94gXw-26"
           id="g35">
          <g
             id="g34">
            <path
               d="M 588.15,178.11 Q 609,151 669.26,80.41"
               fill="none"
               stroke="#66ffb3"
               stroke-width="10"
               stroke-miterlimit="10"
               pointer-events="stroke"
               id="path33" />
          </g>
        </g>
        <g
           data-cell-id="ap5xLN0G-RL6LaZ94gXw-27"
           id="g37">
          <g
             transform="translate(0.5,0.5)"
             id="g36">
            <circle
               cx="679"
               cy="69"
               fill="#66ffb3"
               stroke="#66ffb3"
               pointer-events="all"
               id="ellipse35"
               r="15" />
          </g>
        </g>
        <g
           data-cell-id="ap5xLN0G-RL6LaZ94gXw-28"
           id="g39">
          <g
             id="g38">
            <path
               d="m 502.88,141.32 q 0,0 162.24,-66.62"
               fill="none"
               stroke="#ffffff"
               stroke-width="10"
               stroke-miterlimit="10"
               pointer-events="stroke"
               id="path37" />
          </g>
        </g>
        <g
           data-cell-id="ap5xLN0G-RL6LaZ94gXw-33"
           id="g41">
          <g
             id="g40">
            <path
               d="m 565.44,183.58 q 0,0 -62.91,-30.11"
               fill="none"
               stroke="#66ffb3"
               stroke-width="10"
               stroke-miterlimit="10"
               pointer-events="stroke"
               id="path39" />
          </g>
        </g>
      </g>
    </g>
  </g>
  <g
     id="g45"
     transform="matrix(0.84294926,0,0,0.82867996,-1.1116763,49.151125)">
    <g
       transform="matrix(0.57937776,0,0,0.57937776,0,228.62445)"
       id="svg1"
       style="display:inline"
       inkscape:label="Hand">
      <defs
         id="defs26" />
      <path
         style="display:inline;fill:#ffffff;stroke-width:0.75"
         d="m 320.79483,208.0154 0.83541,-23.39129 894.71686,-160.397417 14.2019,3.341613 8.354,13.366452 -1.6709,10.860241 -10.8602,11.695646 -888.0336,212.192415 -14.20185,-25.06209 z"
         id="path7" />
      <path
         style="display:inline;fill:#ffffff;stroke-width:1.38796"
         d="m 51.024928,528.0275 c -4.898645,-2.65797 -7.998211,-8.74043 -7.998211,-15.69534 0,-10.21835 8.575081,-16.86507 31.22907,-24.20632 19.484475,-6.31413 26.894513,-7.14425 61.070183,-6.84144 48.00366,0.42532 66.3132,-3.26251 88.86222,-17.89827 5.32555,-3.45663 23.42363,-18.36017 40.21793,-33.11896 39.60801,-34.80743 50.12553,-41.53374 89.31552,-57.12029 9.6565,-3.84056 18.07397,-7.47291 18.70547,-8.07189 1.96095,-1.85999 -7.22336,-10.86147 -14.77571,-14.48157 -9.64909,-4.62515 -17.8019,-5.57211 -30.89103,-3.58801 -13.85788,2.10062 -24.60945,5.96715 -54.0265,19.42927 -37.8664,17.32879 -48.93372,19.68075 -62.62057,13.3078 -16.48273,-7.67478 -21.65164,-27.85587 -10.78397,-42.10413 7.11544,-9.32881 6.5914,-9.18734 106.71555,-28.81109 41.22237,-8.07933 76.51122,-15.03002 78.41966,-15.44594 l 3.4699,-0.75623 -3.18365,-2.5835 c -1.75102,-1.42094 -11.43203,-5.18083 -21.51336,-8.35533 -10.08134,-3.17451 -32.158,-10.67256 -49.05923,-16.66232 -35.27111,-12.50004 -47.68269,-15.91779 -64.91714,-17.8761 -17.67692,-2.00859 -30.55689,-0.0315 -44.53716,6.83636 -14.81921,7.28005 -24.82041,16.59653 -47.47736,44.2269 -53.62612,65.39757 -78.12035,87.86618 -119.042537,109.19799 -10.637082,5.54488 -13.320282,6.39594 -18.370427,5.82671 C 8.6106558,411.97081 1.4855868,403.57541 3.3229396,393.78149 4.7633441,386.10347 8.6939467,382.46634 23.94143,374.70244 c 17.555917,-8.93932 33.858539,-19.63689 44.585743,-29.25655 4.483036,-4.0202 24.091371,-25.77251 43.574077,-48.33848 19.48271,-22.56597 39.54886,-45.30004 44.59145,-50.52015 22.01544,-22.79045 48.31202,-34.22959 78.68787,-34.22959 27.16457,0 34.53995,1.73822 105.36327,24.83186 21.37457,6.96969 43.8595,13.94242 49.96651,15.49494 29.41709,7.47845 34.53404,10.82547 36.24277,23.7065 l 0.92978,7.00904 6.39699,-0.95844 c 3.51833,-0.52714 30.13107,-5.60205 59.1394,-11.27756 29.00834,-5.67552 90.06104,-17.48648 135.67268,-26.24657 45.61162,-8.76008 98.07646,-19.03132 116.58852,-22.82498 40.39929,-8.27897 348.57631,-68.23768 520.83171,-101.33266 67.9406,-13.05324 171.6211,-33.029489 230.4012,-44.391658 58.78,-11.362169 110.7688,-21.352205 115.5305,-22.200079 9.6994,-1.727108 14.2436,-0.410736 14.2436,4.126199 0,4.86472 17.7008,0.454194 -185.9864,46.342598 -66.0322,14.87629 -216.244,48.9117 -333.8041,75.63425 -117.56009,26.72254 -228.111,51.77606 -245.66867,55.67444 -17.55768,3.89841 -114.99237,26.08202 -216.52155,49.29692 -101.52917,23.21492 -198.20465,45.27328 -214.83438,49.01861 -16.62975,3.74532 -30.54099,7.11477 -30.91388,7.48764 -0.37288,0.37289 1.8542,5.95517 4.94909,12.40507 7.0658,14.72553 8.00971,20.13844 4.92179,28.22406 -3.16597,8.28999 -7.27872,10.91297 -28.18834,17.97765 -31.60029,10.67671 -53.37782,21.72555 -71.12629,36.08598 -4.96195,4.01475 -17.76587,15.28452 -28.45315,25.04392 -33.72548,30.7974 -49.59677,40.90881 -76.33772,48.63378 -15.78233,4.55924 -34.93571,6.04762 -66.79548,5.19059 -29.22072,-0.78604 -44.285319,1.5923 -62.672924,9.89452 -11.874407,5.36145 -18.19528,6.09792 -24.230568,2.82321 z"
         id="path26"
         transform="scale(0.74999971)" />
    </g>
  </g>
</svg>
